<svg xmlns="http://www.w3.org/2000/svg" xmlns:xlink="http://www.w3.org/1999/xlink" xmlns:lucid="lucid" width="2298" height="1527"><g transform="translate(3140 -140)" lucid:page-tab-id="0_0"><path d="M-3612.8 0H64v2582.4h-3676.8z" fill="#fff"/><path d="M-1222 283h360v301h-360z" stroke="#000" stroke-width="2" fill="#fff"/><path d="M-1222 333.93h360m-360 177.24h360" stroke="#000" stroke-width="2" fill="none"/><use xlink:href="#a" transform="matrix(1,0,0,1,-1214,291) translate(143.73796296296297 23.322222222222223)"/><use xlink:href="#b" transform="matrix(1,0,0,1,-1210,341.93333333333334) translate(0 34.42222222222224)"/><use xlink:href="#c" transform="matrix(1,0,0,1,-1210,341.93333333333334) translate(30.64753086419752 34.42222222222224)"/><use xlink:href="#d" transform="matrix(1,0,0,1,-1210,341.93333333333334) translate(46.820370370370355 34.42222222222224)"/><use xlink:href="#e" transform="matrix(1,0,0,1,-1210,341.93333333333334) translate(0 69.35555555555555)"/><use xlink:href="#c" transform="matrix(1,0,0,1,-1210,341.93333333333334) translate(70.99876543209874 69.35555555555555)"/><use xlink:href="#f" transform="matrix(1,0,0,1,-1210,341.93333333333334) translate(87.17160493827157 69.35555555555555)"/><use xlink:href="#g" transform="matrix(1,0,0,1,-1210,341.93333333333334) translate(0 104.28888888888889)"/><use xlink:href="#c" transform="matrix(1,0,0,1,-1210,341.93333333333334) translate(109.8944444444444 104.28888888888889)"/><use xlink:href="#h" transform="matrix(1,0,0,1,-1210,341.93333333333334) translate(126.06728395061724 104.28888888888889)"/><use xlink:href="#i" transform="matrix(1,0,0,1,-1210,341.93333333333334) translate(0 139.2222222222222)"/><use xlink:href="#c" transform="matrix(1,0,0,1,-1210,341.93333333333334) translate(185.745061728395 139.2222222222222)"/><use xlink:href="#j" transform="matrix(1,0,0,1,-1210,341.93333333333334) translate(201.91790123456784 139.2222222222222)"/><path d="M-1920 521h500v580h-500z" stroke="#000" stroke-width="2" fill="#fff"/><path d="M-1920 571.93h500m-500 386.84h500" stroke="#000" stroke-width="2" fill="none"/><use xlink:href="#k" transform="matrix(1,0,0,1,-1912,529) translate(204.88333333333335 23.322222222222223)"/><use xlink:href="#b" transform="matrix(1,0,0,1,-1908,579.9333333333333) translate(0 34.12222222222223)"/><use xlink:href="#c" transform="matrix(1,0,0,1,-1908,579.9333333333333) translate(30.64753086419752 34.12222222222223)"/><use xlink:href="#d" transform="matrix(1,0,0,1,-1908,579.9333333333333) translate(46.820370370370355 34.12222222222223)"/><use xlink:href="#l" transform="matrix(1,0,0,1,-1908,579.9333333333333) translate(0 69.05555555555554)"/><use xlink:href="#c" transform="matrix(1,0,0,1,-1908,579.9333333333333) translate(77.46790123456788 69.05555555555554)"/><use xlink:href="#m" transform="matrix(1,0,0,1,-1908,579.9333333333333) translate(93.64074074074071 69.05555555555554)"/><use xlink:href="#e" transform="matrix(1,0,0,1,-1908,579.9333333333333) translate(0 103.98888888888888)"/><use xlink:href="#c" transform="matrix(1,0,0,1,-1908,579.9333333333333) translate(70.99876543209874 103.98888888888888)"/><use xlink:href="#n" transform="matrix(1,0,0,1,-1908,579.9333333333333) translate(87.17160493827157 103.98888888888888)"/><use xlink:href="#o" transform="matrix(1,0,0,1,-1908,579.9333333333333) translate(0 138.9222222222222)"/><use xlink:href="#c" transform="matrix(1,0,0,1,-1908,579.9333333333333) translate(108.19629629629627 138.9222222222222)"/><use xlink:href="#p" transform="matrix(1,0,0,1,-1908,579.9333333333333) translate(124.3691358024691 138.9222222222222)"/><use xlink:href="#q" transform="matrix(1,0,0,1,-1908,579.9333333333333) translate(0 173.85555555555553)"/><use xlink:href="#r" transform="matrix(1,0,0,1,-1908,579.9333333333333) translate(208.30617283950608 173.85555555555553)"/><use xlink:href="#s" transform="matrix(1,0,0,1,-1908,579.9333333333333) translate(232.5654320987653 173.85555555555553)"/><use xlink:href="#t" transform="matrix(1,0,0,1,-1908,579.9333333333333) translate(0 208.78888888888886)"/><use xlink:href="#c" transform="matrix(1,0,0,1,-1908,579.9333333333333) translate(218.09074074074067 208.78888888888886)"/><use xlink:href="#u" transform="matrix(1,0,0,1,-1908,579.9333333333333) translate(234.2635802469135 208.78888888888886)"/><use xlink:href="#v" transform="matrix(1,0,0,1,-1908,579.9333333333333) translate(0 243.7222222222222)"/><use xlink:href="#c" transform="matrix(1,0,0,1,-1908,579.9333333333333) translate(88.86975308641972 243.7222222222222)"/><use xlink:href="#d" transform="matrix(1,0,0,1,-1908,579.9333333333333) translate(105.04259259259256 243.7222222222222)"/><use xlink:href="#w" transform="matrix(1,0,0,1,-1908,579.9333333333333) translate(0 278.6555555555555)"/><use xlink:href="#c" transform="matrix(1,0,0,1,-1908,579.9333333333333) translate(164.72037037037035 278.6555555555555)"/><use xlink:href="#x" transform="matrix(1,0,0,1,-1908,579.9333333333333) translate(180.89320987654318 278.6555555555555)"/><use xlink:href="#y" transform="matrix(1,0,0,1,-1908,579.9333333333333) translate(0 313.58888888888885)"/><use xlink:href="#c" transform="matrix(1,0,0,1,-1908,579.9333333333333) translate(198.4407407407407 313.58888888888885)"/><use xlink:href="#x" transform="matrix(1,0,0,1,-1908,579.9333333333333) translate(214.61358024691353 313.58888888888885)"/><use xlink:href="#z" transform="matrix(1,0,0,1,-1908,579.9333333333333) translate(0 348.52222222222224)"/><use xlink:href="#c" transform="matrix(1,0,0,1,-1908,579.9333333333333) translate(158.33209876543208 348.52222222222224)"/><use xlink:href="#A" transform="matrix(1,0,0,1,-1908,579.9333333333333) translate(174.5049382716049 348.52222222222224)"/><use xlink:href="#B" transform="matrix(1,0,0,1,-1908,966.7666666666667) translate(0 34.38888888888889)"/><use xlink:href="#C" transform="matrix(1,0,0,1,-1908,966.7666666666667) translate(25.067901234567895 34.38888888888889)"/><use xlink:href="#D" transform="matrix(1,0,0,1,-1908,966.7666666666667) translate(0 69.32222222222222)"/><use xlink:href="#E" transform="matrix(1,0,0,1,-1908,966.7666666666667) translate(17.709259259259255 69.32222222222222)"/><use xlink:href="#D" transform="matrix(1,0,0,1,-1908,966.7666666666667) translate(0 104.25555555555553)"/><use xlink:href="#F" transform="matrix(1,0,0,1,-1908,966.7666666666667) translate(17.709259259259255 104.25555555555553)"/><path d="M-3120 160h360v308h-360z" stroke="#000" stroke-width="2" fill="#fff"/><path d="M-3120 245.87h360" stroke="#000" stroke-width="2" fill="none"/><use xlink:href="#G" transform="matrix(1,0,0,1,-3112,168) translate(116.28456790123458 23.35555555555556)"/><use xlink:href="#H" transform="matrix(1,0,0,1,-3112,168) translate(88.06296296296298 58.288888888888884)"/><use xlink:href="#I" transform="matrix(1,0,0,1,-3108,253.86666666666665) translate(0 73.88888888888889)"/><use xlink:href="#J" transform="matrix(1,0,0,1,-3108,253.86666666666665) translate(0 108.82222222222222)"/><use xlink:href="#K" transform="matrix(1,0,0,1,-3108,253.86666666666665) translate(0 143.75555555555553)"/><path d="M-1222 665h360v266h-360z" stroke="#000" stroke-width="2" fill="#fff"/><path d="M-1222 715.93h360m-360 142.3h360" stroke="#000" stroke-width="2" fill="none"/><use xlink:href="#L" transform="matrix(1,0,0,1,-1214,673) translate(117.05277777777779 23.322222222222223)"/><use xlink:href="#M" transform="matrix(1,0,0,1,-1210,723.9333333333333) translate(0 34.38888888888889)"/><use xlink:href="#c" transform="matrix(1,0,0,1,-1210,723.9333333333333) translate(109.81358024691355 34.38888888888889)"/><use xlink:href="#n" transform="matrix(1,0,0,1,-1210,723.9333333333333) translate(125.98641975308638 34.38888888888889)"/><use xlink:href="#N" transform="matrix(1,0,0,1,-1210,723.9333333333333) translate(0 69.32222222222222)"/><use xlink:href="#c" transform="matrix(1,0,0,1,-1210,723.9333333333333) translate(101.72716049382713 69.32222222222222)"/><use xlink:href="#n" transform="matrix(1,0,0,1,-1210,723.9333333333333) translate(117.89999999999996 69.32222222222222)"/><use xlink:href="#O" transform="matrix(1,0,0,1,-1210,723.9333333333333) translate(0 104.25555555555553)"/><use xlink:href="#c" transform="matrix(1,0,0,1,-1210,723.9333333333333) translate(80.78333333333332 104.25555555555553)"/><use xlink:href="#P" transform="matrix(1,0,0,1,-1210,723.9333333333333) translate(96.95617283950615 104.25555555555553)"/><path d="M-1222 1025h360v336h-360z" stroke="#000" stroke-width="2" fill="#fff"/><path d="M-1222 1075.93h360m-360 212.17h360" stroke="#000" stroke-width="2" fill="none"/><use xlink:href="#Q" transform="matrix(1,0,0,1,-1214,1033) translate(114.62685185185187 23.322222222222223)"/><use xlink:href="#b" transform="matrix(1,0,0,1,-1210,1083.9333333333334) translate(0 34.45555555555557)"/><use xlink:href="#c" transform="matrix(1,0,0,1,-1210,1083.9333333333334) translate(30.64753086419752 34.45555555555557)"/><use xlink:href="#d" transform="matrix(1,0,0,1,-1210,1083.9333333333334) translate(46.820370370370355 34.45555555555557)"/><use xlink:href="#R" transform="matrix(1,0,0,1,-1210,1083.9333333333334) translate(0 69.38888888888889)"/><use xlink:href="#c" transform="matrix(1,0,0,1,-1210,1083.9333333333334) translate(85.71604938271602 69.38888888888889)"/><use xlink:href="#S" transform="matrix(1,0,0,1,-1210,1083.9333333333334) translate(101.88888888888886 69.38888888888889)"/><use xlink:href="#T" transform="matrix(1,0,0,1,-1210,1083.9333333333334) translate(0 104.32222222222222)"/><use xlink:href="#U" transform="matrix(1,0,0,1,-1210,1083.9333333333334) translate(192.295061728395 104.32222222222222)"/><use xlink:href="#V" transform="matrix(1,0,0,1,-1210,1083.9333333333334) translate(0 139.25555555555553)"/><use xlink:href="#W" transform="matrix(1,0,0,1,-1210,1083.9333333333334) translate(0 174.18888888888887)"/><use xlink:href="#c" transform="matrix(1,0,0,1,-1210,1083.9333333333334) translate(105.04259259259257 174.18888888888887)"/><use xlink:href="#X" transform="matrix(1,0,0,1,-1210,1083.9333333333334) translate(121.2154320987654 174.18888888888887)"/><path d="M-2620 182h360v273h-360z" stroke="#000" stroke-width="2" fill="#fff"/><path d="M-2620 267.87h360" stroke="#000" stroke-width="2" fill="none"/><g><use xlink:href="#G" transform="matrix(1,0,0,1,-2612,190) translate(116.28456790123458 23.35555555555556)"/><use xlink:href="#Y" transform="matrix(1,0,0,1,-2612,190) translate(67.07870370370375 58.288888888888884)"/></g><g><use xlink:href="#Z" transform="matrix(1,0,0,1,-2608,275.8666666666667) translate(0 73.85555555555555)"/><use xlink:href="#aa" transform="matrix(1,0,0,1,-2608,275.8666666666667) translate(0 108.78888888888889)"/></g><path d="M-2080 182h360v273h-360z" stroke="#000" stroke-width="2" fill="#fff"/><path d="M-2080 267.87h360" stroke="#000" stroke-width="2" fill="none"/><g><use xlink:href="#G" transform="matrix(1,0,0,1,-2072,190) translate(116.28456790123458 23.35555555555556)"/><use xlink:href="#ab" transform="matrix(1,0,0,1,-2072,190) translate(73.54783950617286 58.288888888888884)"/></g><g><use xlink:href="#ac" transform="matrix(1,0,0,1,-2068,275.8666666666667) translate(0 73.85555555555555)"/><use xlink:href="#ad" transform="matrix(1,0,0,1,-2068,275.8666666666667) translate(0 108.78888888888889)"/></g><path d="M-2400 1060h360v301h-360z" stroke="#000" stroke-width="2" fill="#fff"/><path d="M-2400 1110.93h360m-360 177.24h360" stroke="#000" stroke-width="2" fill="none"/><g><use xlink:href="#ae" transform="matrix(1,0,0,1,-2392,1068) translate(125.17962962962964 23.322222222222223)"/></g><g><use xlink:href="#b" transform="matrix(1,0,0,1,-2388,1118.9333333333334) translate(0 34.42222222222224)"/><use xlink:href="#c" transform="matrix(1,0,0,1,-2388,1118.9333333333334) translate(30.64753086419752 34.42222222222224)"/><use xlink:href="#d" transform="matrix(1,0,0,1,-2388,1118.9333333333334) translate(46.820370370370355 34.42222222222224)"/><use xlink:href="#O" transform="matrix(1,0,0,1,-2388,1118.9333333333334) translate(0 69.35555555555555)"/><use xlink:href="#c" transform="matrix(1,0,0,1,-2388,1118.9333333333334) translate(80.78333333333332 69.35555555555555)"/><use xlink:href="#d" transform="matrix(1,0,0,1,-2388,1118.9333333333334) translate(96.95617283950615 69.35555555555555)"/><use xlink:href="#af" transform="matrix(1,0,0,1,-2388,1118.9333333333334) translate(0 104.28888888888889)"/><use xlink:href="#c" transform="matrix(1,0,0,1,-2388,1118.9333333333334) translate(135.6092592592592 104.28888888888889)"/><use xlink:href="#d" transform="matrix(1,0,0,1,-2388,1118.9333333333334) translate(151.78209876543204 104.28888888888889)"/><use xlink:href="#ag" transform="matrix(1,0,0,1,-2388,1118.9333333333334) translate(0 139.2222222222222)"/><use xlink:href="#c" transform="matrix(1,0,0,1,-2388,1118.9333333333334) translate(114.74629629629625 139.2222222222222)"/><use xlink:href="#ah" transform="matrix(1,0,0,1,-2388,1118.9333333333334) translate(130.9191358024691 139.2222222222222)"/></g><g><use xlink:href="#ai" transform="matrix(1,0,0,1,-2388,1296.1666666666667) translate(0 34.32222222222222)"/><use xlink:href="#c" transform="matrix(1,0,0,1,-2388,1296.1666666666667) translate(90.32530864197528 34.32222222222222)"/><use xlink:href="#aj" transform="matrix(1,0,0,1,-2388,1296.1666666666667) translate(106.49814814814812 34.32222222222222)"/></g><path d="M-2640 1440h360v207h-360z" stroke="#000" stroke-width="2" fill="#fff"/><path d="M-2640 1490.93h360" stroke="#000" stroke-width="2" fill="none"/><g><use xlink:href="#ak" transform="matrix(1,0,0,1,-2632,1448) translate(141.31203703703704 23.322222222222223)"/></g><g><use xlink:href="#al" transform="matrix(1,0,0,1,-2628,1498.9333333333334) translate(0 76.48888888888888)"/><use xlink:href="#am" transform="matrix(1,0,0,1,-2628,1498.9333333333334) translate(122.83271604938267 76.48888888888888)"/><use xlink:href="#an" transform="matrix(1,0,0,1,-2628,1498.9333333333334) translate(147.90061728395057 76.48888888888888)"/></g><path d="M-2200 1440h360v207h-360z" stroke="#000" stroke-width="2" fill="#fff"/><path d="M-2200 1490.93h360" stroke="#000" stroke-width="2" fill="none"/><g><use xlink:href="#ao" transform="matrix(1,0,0,1,-2192,1448) translate(133.26604938271606 23.322222222222223)"/></g><g><use xlink:href="#al" transform="matrix(1,0,0,1,-2188,1498.9333333333334) translate(0 76.48888888888888)"/><use xlink:href="#am" transform="matrix(1,0,0,1,-2188,1498.9333333333334) translate(122.83271604938267 76.48888888888888)"/><use xlink:href="#ap" transform="matrix(1,0,0,1,-2188,1498.9333333333334) translate(147.90061728395057 76.48888888888888)"/></g><path d="M-2460 1438v-37.5h236.35v-20" stroke="#000" stroke-width="2" fill="none"/><path d="M-2459 1439h-2v-1.03h2z"/><path d="M-2223.65 1365.24l4.63 14.26h-9.27z" stroke="#000" stroke-width="2"/><path d="M-2020 1438v-37.5h-200v-20" stroke="#000" stroke-width="2" fill="none"/><path d="M-2019 1439h-2v-1.03h2z"/><path d="M-2220 1365.24l4.64 14.26h-9.28z" stroke="#000" stroke-width="2"/><path d="M-2400 620h360v266h-360z" stroke="#000" stroke-width="2" fill="#fff"/><path d="M-2400 670.93h360m-360 142.3h360" stroke="#000" stroke-width="2" fill="none"/><g><use xlink:href="#aq" transform="matrix(1,0,0,1,-2392,628) translate(74.27561728395064 23.322222222222223)"/></g><g><use xlink:href="#ar" transform="matrix(1,0,0,1,-2388,678.9333333333333) translate(0 34.38888888888889)"/><use xlink:href="#c" transform="matrix(1,0,0,1,-2388,678.9333333333333) translate(75.8506172839506 34.38888888888889)"/><use xlink:href="#as" transform="matrix(1,0,0,1,-2388,678.9333333333333) translate(92.02345679012343 34.38888888888889)"/><use xlink:href="#at" transform="matrix(1,0,0,1,-2388,678.9333333333333) translate(0 69.32222222222222)"/><use xlink:href="#c" transform="matrix(1,0,0,1,-2388,678.9333333333333) translate(113.04814814814812 69.32222222222222)"/><use xlink:href="#au" transform="matrix(1,0,0,1,-2388,678.9333333333333) translate(129.22098765432094 69.32222222222222)"/><use xlink:href="#av" transform="matrix(1,0,0,1,-2388,678.9333333333333) translate(0 104.25555555555553)"/><use xlink:href="#c" transform="matrix(1,0,0,1,-2388,678.9333333333333) translate(64.61049382716047 104.25555555555553)"/><use xlink:href="#aw" transform="matrix(1,0,0,1,-2388,678.9333333333333) translate(80.7833333333333 104.25555555555553)"/></g><path d="M-1224 433.5h-97v194.3h-67.25" stroke="#000" stroke-width="2" fill="none"/><path d="M-1223 434.5h-1.03v-2h1.03z"/><path d="M-1417.6 627.8l14.86-14.84 15.15 14.85-15.14 14.86z" stroke="#000" stroke-width="2"/><path d="M-1224 798h-97v13h-67.25" stroke="#000" stroke-width="2" fill="none"/><path d="M-1223 799h-1.03v-2h1.03z"/><path d="M-1417.6 811l14.86-14.85 15.15 14.85-15.14 14.85z" stroke="#000" stroke-width="2"/><path d="M-1224 1193h-97V951h-67.25" stroke="#000" stroke-width="2" fill="none"/><path d="M-1223 1194h-1.03v-2h1.03z"/><path d="M-1417.6 951l14.86-14.86 15.15 14.85-15.14 14.84z" stroke="#000" stroke-width="2"/><path d="M-1922 750.17h-58v-52.35h-28.25" stroke="#000" stroke-width="2" fill="none"/><path d="M-1921 751.17h-1.03v-2h1.03z"/><path d="M-2037.6 697.82l14.86-14.85 15.15 14.85-15.14 14.85z" stroke="#000" stroke-width="2"/><path d="M-2220 1058V917.75" stroke="#000" stroke-width="2" fill="none"/><path d="M-2219 1059h-2v-1.03h2z"/><path d="M-2220 888.4l14.85 14.86-14.85 15.15-14.85-15.14z" stroke="#000" stroke-width="2" fill="#fff"/><path d="M-2038 1210.5h368v-77.75" stroke="#000" stroke-width="2" fill="none"/><path d="M-2037.97 1211.5h-1.03v-2h1.03z"/><path d="M-1670 1103.4l14.85 14.86-14.85 15.15-14.85-15.14zM-2900 631h360v231h-360z" stroke="#000" stroke-width="2" fill="#fff"/><path d="M-2900 681.93h360m-360 107.37h360" stroke="#000" stroke-width="2" fill="none"/><g><use xlink:href="#ax" transform="matrix(1,0,0,1,-2892,639) translate(141.3524691358025 23.322222222222223)"/></g><g><use xlink:href="#b" transform="matrix(1,0,0,1,-2888,689.9333333333333) translate(0 34.35555555555556)"/><use xlink:href="#c" transform="matrix(1,0,0,1,-2888,689.9333333333333) translate(30.64753086419752 34.35555555555556)"/><use xlink:href="#d" transform="matrix(1,0,0,1,-2888,689.9333333333333) translate(46.820370370370355 34.35555555555556)"/><use xlink:href="#O" transform="matrix(1,0,0,1,-2888,689.9333333333333) translate(0 69.28888888888889)"/><use xlink:href="#c" transform="matrix(1,0,0,1,-2888,689.9333333333333) translate(80.78333333333332 69.28888888888889)"/><use xlink:href="#P" transform="matrix(1,0,0,1,-2888,689.9333333333333) translate(96.95617283950615 69.28888888888889)"/></g><path d="M-2538 746.5h68v6.5h38.25" stroke="#000" stroke-width="2" fill="none"/><path d="M-2537.97 747.5h-1.03v-2h1.03z"/><path d="M-2402.4 753l-14.86 14.85-15.15-14.85 15.14-14.85z" stroke="#000" stroke-width="2" fill="#fff"/><defs><path d="M33 0v-248h34V0H33" id="ay"/><path d="M59-47c-2 24 18 29 38 22v24C64 9 27 4 27-40v-127H5v-23h24l9-43h21v43h35v23H59v120" id="az"/><path d="M100-194c63 0 86 42 84 106H49c0 40 14 67 53 68 26 1 43-12 49-29l28 8c-11 28-37 45-77 45C44 4 14-33 15-96c1-61 26-98 85-98zm52 81c6-60-76-77-97-28-3 7-6 17-6 28h103" id="aA"/><path d="M210-169c-67 3-38 105-44 169h-31v-121c0-29-5-50-35-48C34-165 62-65 56 0H25l-1-190h30c1 10-1 24 2 32 10-44 99-50 107 0 11-21 27-35 58-36 85-2 47 119 55 194h-31v-121c0-29-5-49-35-48" id="aB"/><g id="a"><use transform="matrix(0.08086419753086417,0,0,0.08086419753086417,0,0)" xlink:href="#ay"/><use transform="matrix(0.08086419753086417,0,0,0.08086419753086417,8.086419753086417,0)" xlink:href="#az"/><use transform="matrix(0.08086419753086417,0,0,0.08086419753086417,16.172839506172835,0)" xlink:href="#aA"/><use transform="matrix(0.08086419753086417,0,0,0.08086419753086417,32.34567901234567,0)" xlink:href="#aB"/></g><path d="M24-231v-30h32v30H24zM24 0v-190h32V0H24" id="aC"/><path d="M85-194c31 0 48 13 60 33l-1-100h32l1 261h-30c-2-10 0-23-3-31C134-8 116 4 85 4 32 4 16-35 15-94c0-66 23-100 70-100zm9 24c-40 0-46 34-46 75 0 40 6 74 45 74 42 0 51-32 51-76 0-42-9-74-50-73" id="aD"/><g id="b"><use transform="matrix(0.08086419753086417,0,0,0.08086419753086417,0,0)" xlink:href="#aC"/><use transform="matrix(0.08086419753086417,0,0,0.08086419753086417,6.38827160493827,0)" xlink:href="#aD"/></g><path d="M33-154v-36h34v36H33zM33 0v-36h34V0H33" id="aE"/><use transform="matrix(0.08086419753086417,0,0,0.08086419753086417,0,0)" xlink:href="#aE" id="c"/><path d="M185-189c-5-48-123-54-124 2 14 75 158 14 163 119 3 78-121 87-175 55-17-10-28-26-33-46l33-7c5 56 141 63 141-1 0-78-155-14-162-118-5-82 145-84 179-34 5 7 8 16 11 25" id="aF"/><path d="M114-163C36-179 61-72 57 0H25l-1-190h30c1 12-1 29 2 39 6-27 23-49 58-41v29" id="aG"/><path d="M117-194c89-4 53 116 60 194h-32v-121c0-31-8-49-39-48C34-167 62-67 57 0H25l-1-190h30c1 10-1 24 2 32 11-22 29-35 61-36" id="aH"/><path d="M177-190C167-65 218 103 67 71c-23-6-38-20-44-43l32-5c15 47 100 32 89-28v-30C133-14 115 1 83 1 29 1 15-40 15-95c0-56 16-97 71-98 29-1 48 16 59 35 1-10 0-23 2-32h30zM94-22c36 0 50-32 50-73 0-42-14-75-50-75-39 0-46 34-46 75s6 73 46 73" id="aI"/><g id="d"><use transform="matrix(0.08086419753086417,0,0,0.08086419753086417,0,0)" xlink:href="#aF"/><use transform="matrix(0.08086419753086417,0,0,0.08086419753086417,19.4074074074074,0)" xlink:href="#az"/><use transform="matrix(0.08086419753086417,0,0,0.08086419753086417,27.49382716049382,0)" xlink:href="#aG"/><use transform="matrix(0.08086419753086417,0,0,0.08086419753086417,37.11666666666665,0)" xlink:href="#aC"/><use transform="matrix(0.08086419753086417,0,0,0.08086419753086417,43.50493827160492,0)" xlink:href="#aH"/><use transform="matrix(0.08086419753086417,0,0,0.08086419753086417,59.677777777777756,0)" xlink:href="#aI"/></g><path d="M115-194c55 1 70 41 70 98S169 2 115 4C84 4 66-9 55-30l1 105H24l-1-265h31l2 30c10-21 28-34 59-34zm-8 174c40 0 45-34 45-75s-6-73-45-74c-42 0-51 32-51 76 0 43 10 73 51 73" id="aJ"/><path d="M96-169c-40 0-48 33-48 73s9 75 48 75c24 0 41-14 43-38l32 2c-6 37-31 61-74 61-59 0-76-41-82-99-10-93 101-131 147-64 4 7 5 14 7 22l-32 3c-4-21-16-35-41-35" id="aK"/><g id="e"><use transform="matrix(0.08086419753086417,0,0,0.08086419753086417,0,0)" xlink:href="#aJ"/><use transform="matrix(0.08086419753086417,0,0,0.08086419753086417,16.172839506172835,0)" xlink:href="#aG"/><use transform="matrix(0.08086419753086417,0,0,0.08086419753086417,25.79567901234567,0)" xlink:href="#aC"/><use transform="matrix(0.08086419753086417,0,0,0.08086419753086417,32.18395061728394,0)" xlink:href="#aK"/><use transform="matrix(0.08086419753086417,0,0,0.08086419753086417,46.73950617283949,0)" xlink:href="#aA"/></g><path d="M100-194c62-1 85 37 85 99 1 63-27 99-86 99S16-35 15-95c0-66 28-99 85-99zM99-20c44 1 53-31 53-75 0-43-8-75-51-75s-53 32-53 75 10 74 51 75" id="aL"/><path d="M84 4C-5 8 30-112 23-190h32v120c0 31 7 50 39 49 72-2 45-101 50-169h31l1 190h-30c-1-10 1-25-2-33-11 22-28 36-60 37" id="aM"/><path d="M115-194c53 0 69 39 70 98 0 66-23 100-70 100C84 3 66-7 56-30L54 0H23l1-261h32v101c10-23 28-34 59-34zm-8 174c40 0 45-34 45-75 0-40-5-75-45-74-42 0-51 32-51 76 0 43 10 73 51 73" id="aN"/><path d="M24 0v-261h32V0H24" id="aO"/><g id="f"><use transform="matrix(0.08086419753086417,0,0,0.08086419753086417,0,0)" xlink:href="#aD"/><use transform="matrix(0.08086419753086417,0,0,0.08086419753086417,16.172839506172835,0)" xlink:href="#aL"/><use transform="matrix(0.08086419753086417,0,0,0.08086419753086417,32.34567901234567,0)" xlink:href="#aM"/><use transform="matrix(0.08086419753086417,0,0,0.08086419753086417,48.518518518518505,0)" xlink:href="#aN"/><use transform="matrix(0.08086419753086417,0,0,0.08086419753086417,64.69135802469134,0)" xlink:href="#aO"/><use transform="matrix(0.08086419753086417,0,0,0.08086419753086417,71.07962962962961,0)" xlink:href="#aA"/></g><path d="M145-31C134-9 116 4 85 4 32 4 16-35 15-94c0-59 17-99 70-100 32-1 48 14 60 33 0-11-1-24 2-32h30l-1 268h-32zM93-21c41 0 51-33 51-76s-8-73-50-73c-40 0-46 35-46 75s5 74 45 74" id="aP"/><path d="M141-36C126-15 110 5 73 4 37 3 15-17 15-53c-1-64 63-63 125-63 3-35-9-54-41-54-24 1-41 7-42 31l-33-3c5-37 33-52 76-52 45 0 72 20 72 64v82c-1 20 7 32 28 27v20c-31 9-61-2-59-35zM48-53c0 20 12 33 32 33 41-3 63-29 60-74-43 2-92-5-92 41" id="aQ"/><path d="M179-190L93 31C79 59 56 82 12 73V49c39 6 53-20 64-50L1-190h34L92-34l54-156h33" id="aR"/><g id="g"><use transform="matrix(0.08086419753086417,0,0,0.08086419753086417,0,0)" xlink:href="#aP"/><use transform="matrix(0.08086419753086417,0,0,0.08086419753086417,16.172839506172835,0)" xlink:href="#aM"/><use transform="matrix(0.08086419753086417,0,0,0.08086419753086417,32.34567901234567,0)" xlink:href="#aQ"/><use transform="matrix(0.08086419753086417,0,0,0.08086419753086417,48.518518518518505,0)" xlink:href="#aH"/><use transform="matrix(0.08086419753086417,0,0,0.08086419753086417,64.69135802469134,0)" xlink:href="#az"/><use transform="matrix(0.08086419753086417,0,0,0.08086419753086417,72.77777777777776,0)" xlink:href="#aC"/><use transform="matrix(0.08086419753086417,0,0,0.08086419753086417,79.16604938271603,0)" xlink:href="#az"/><use transform="matrix(0.08086419753086417,0,0,0.08086419753086417,87.25246913580244,0)" xlink:href="#aR"/></g><g id="h"><use transform="matrix(0.08086419753086417,0,0,0.08086419753086417,0,0)" xlink:href="#ay"/><use transform="matrix(0.08086419753086417,0,0,0.08086419753086417,8.086419753086417,0)" xlink:href="#aH"/><use transform="matrix(0.08086419753086417,0,0,0.08086419753086417,24.259259259259252,0)" xlink:href="#az"/><use transform="matrix(0.08086419753086417,0,0,0.08086419753086417,32.34567901234567,0)" xlink:href="#aA"/><use transform="matrix(0.08086419753086417,0,0,0.08086419753086417,48.518518518518505,0)" xlink:href="#aI"/><use transform="matrix(0.08086419753086417,0,0,0.08086419753086417,64.69135802469134,0)" xlink:href="#aA"/><use transform="matrix(0.08086419753086417,0,0,0.08086419753086417,80.86419753086417,0)" xlink:href="#aG"/></g><path d="M30-248c87 1 191-15 191 75 0 78-77 80-158 76V0H30v-248zm33 125c57 0 124 11 124-50 0-59-68-47-124-48v98" id="aS"/><path d="M190 0L58-211 59 0H30v-248h39L202-35l-2-213h31V0h-41" id="aT"/><g id="i"><use transform="matrix(0.08086419753086417,0,0,0.08086419753086417,0,0)" xlink:href="#aS"/><use transform="matrix(0.08086419753086417,0,0,0.08086419753086417,19.4074074074074,0)" xlink:href="#aG"/><use transform="matrix(0.08086419753086417,0,0,0.08086419753086417,29.03024691358024,0)" xlink:href="#aL"/><use transform="matrix(0.08086419753086417,0,0,0.08086419753086417,45.20308641975307,0)" xlink:href="#aD"/><use transform="matrix(0.08086419753086417,0,0,0.08086419753086417,61.375925925925905,0)" xlink:href="#aM"/><use transform="matrix(0.08086419753086417,0,0,0.08086419753086417,77.54876543209875,0)" xlink:href="#aK"/><use transform="matrix(0.08086419753086417,0,0,0.08086419753086417,92.10432098765429,0)" xlink:href="#az"/><use transform="matrix(0.08086419753086417,0,0,0.08086419753086417,100.19074074074071,0)" xlink:href="#aT"/><use transform="matrix(0.08086419753086417,0,0,0.08086419753086417,121.13456790123453,0)" xlink:href="#aQ"/><use transform="matrix(0.08086419753086417,0,0,0.08086419753086417,137.30740740740737,0)" xlink:href="#aB"/><use transform="matrix(0.08086419753086417,0,0,0.08086419753086417,161.48580246913576,0)" xlink:href="#aA"/></g><g id="j"><use transform="matrix(0.08086419753086417,0,0,0.08086419753086417,0,0)" xlink:href="#aF"/><use transform="matrix(0.08086419753086417,0,0,0.08086419753086417,19.4074074074074,0)" xlink:href="#az"/><use transform="matrix(0.08086419753086417,0,0,0.08086419753086417,27.49382716049382,0)" xlink:href="#aG"/><use transform="matrix(0.08086419753086417,0,0,0.08086419753086417,37.11666666666665,0)" xlink:href="#aC"/><use transform="matrix(0.08086419753086417,0,0,0.08086419753086417,43.50493827160492,0)" xlink:href="#aH"/><use transform="matrix(0.08086419753086417,0,0,0.08086419753086417,59.677777777777756,0)" xlink:href="#aI"/></g><path d="M140-251c81 0 123 46 123 126C263-46 219 4 140 4 59 4 17-45 17-125s42-126 123-126zm0 227c63 0 89-41 89-101s-29-99-89-99c-61 0-89 39-89 99S79-25 140-24" id="aU"/><g id="k"><use transform="matrix(0.08086419753086417,0,0,0.08086419753086417,0,0)" xlink:href="#aU"/><use transform="matrix(0.08086419753086417,0,0,0.08086419753086417,22.641975308641968,0)" xlink:href="#aG"/><use transform="matrix(0.08086419753086417,0,0,0.08086419753086417,32.264814814814805,0)" xlink:href="#aD"/><use transform="matrix(0.08086419753086417,0,0,0.08086419753086417,48.43765432098764,0)" xlink:href="#aA"/><use transform="matrix(0.08086419753086417,0,0,0.08086419753086417,64.61049382716047,0)" xlink:href="#aG"/></g><path d="M135-143c-3-34-86-38-87 0 15 53 115 12 119 90S17 21 10-45l28-5c4 36 97 45 98 0-10-56-113-15-118-90-4-57 82-63 122-42 12 7 21 19 24 35" id="aV"/><g id="l"><use transform="matrix(0.08086419753086417,0,0,0.08086419753086417,0,0)" xlink:href="#aC"/><use transform="matrix(0.08086419753086417,0,0,0.08086419753086417,6.38827160493827,0)" xlink:href="#az"/><use transform="matrix(0.08086419753086417,0,0,0.08086419753086417,14.474691358024687,0)" xlink:href="#aA"/><use transform="matrix(0.08086419753086417,0,0,0.08086419753086417,30.64753086419752,0)" xlink:href="#aB"/><use transform="matrix(0.08086419753086417,0,0,0.08086419753086417,54.82592592592591,0)" xlink:href="#aV"/></g><path d="M30 0v-248h33v221h125V0H30" id="aW"/><path d="M18-100v-36l175-74v27L42-118l151 64v27" id="aX"/><path d="M18-27v-27l151-64-151-65v-27l175 74v36" id="aY"/><g id="m"><use transform="matrix(0.08086419753086417,0,0,0.08086419753086417,0,0)" xlink:href="#aW"/><use transform="matrix(0.08086419753086417,0,0,0.08086419753086417,16.172839506172835,0)" xlink:href="#aC"/><use transform="matrix(0.08086419753086417,0,0,0.08086419753086417,22.561111111111103,0)" xlink:href="#aV"/><use transform="matrix(0.08086419753086417,0,0,0.08086419753086417,37.11666666666665,0)" xlink:href="#az"/><use transform="matrix(0.08086419753086417,0,0,0.08086419753086417,45.20308641975307,0)" xlink:href="#aX"/><use transform="matrix(0.08086419753086417,0,0,0.08086419753086417,62.184567901234544,0)" xlink:href="#ay"/><use transform="matrix(0.08086419753086417,0,0,0.08086419753086417,70.27098765432096,0)" xlink:href="#az"/><use transform="matrix(0.08086419753086417,0,0,0.08086419753086417,78.35740740740738,0)" xlink:href="#aA"/><use transform="matrix(0.08086419753086417,0,0,0.08086419753086417,94.53024691358021,0)" xlink:href="#aB"/><use transform="matrix(0.08086419753086417,0,0,0.08086419753086417,118.70864197530861,0)" xlink:href="#aY"/></g><path d="M30-248c118-7 216 8 213 122C240-48 200 0 122 0H30v-248zM63-27c89 8 146-16 146-99s-60-101-146-95v194" id="aZ"/><g id="n"><use transform="matrix(0.08086419753086417,0,0,0.08086419753086417,0,0)" xlink:href="#aZ"/><use transform="matrix(0.08086419753086417,0,0,0.08086419753086417,20.94382716049382,0)" xlink:href="#aL"/><use transform="matrix(0.08086419753086417,0,0,0.08086419753086417,37.11666666666666,0)" xlink:href="#aM"/><use transform="matrix(0.08086419753086417,0,0,0.08086419753086417,53.289506172839495,0)" xlink:href="#aN"/><use transform="matrix(0.08086419753086417,0,0,0.08086419753086417,69.46234567901233,0)" xlink:href="#aO"/><use transform="matrix(0.08086419753086417,0,0,0.08086419753086417,75.8506172839506,0)" xlink:href="#aA"/></g><g id="o"><use transform="matrix(0.08086419753086417,0,0,0.08086419753086417,0,0)" xlink:href="#aO"/><use transform="matrix(0.08086419753086417,0,0,0.08086419753086417,6.38827160493827,0)" xlink:href="#aL"/><use transform="matrix(0.08086419753086417,0,0,0.08086419753086417,22.561111111111103,0)" xlink:href="#aK"/><use transform="matrix(0.08086419753086417,0,0,0.08086419753086417,37.11666666666665,0)" xlink:href="#aQ"/><use transform="matrix(0.08086419753086417,0,0,0.08086419753086417,53.28950617283949,0)" xlink:href="#az"/><use transform="matrix(0.08086419753086417,0,0,0.08086419753086417,61.375925925925905,0)" xlink:href="#aC"/><use transform="matrix(0.08086419753086417,0,0,0.08086419753086417,67.76419753086418,0)" xlink:href="#aL"/><use transform="matrix(0.08086419753086417,0,0,0.08086419753086417,83.93703703703702,0)" xlink:href="#aH"/></g><g id="p"><use transform="matrix(0.08086419753086417,0,0,0.08086419753086417,0,0)" xlink:href="#aW"/><use transform="matrix(0.08086419753086417,0,0,0.08086419753086417,16.172839506172835,0)" xlink:href="#aL"/><use transform="matrix(0.08086419753086417,0,0,0.08086419753086417,32.34567901234567,0)" xlink:href="#aK"/><use transform="matrix(0.08086419753086417,0,0,0.08086419753086417,46.90123456790122,0)" xlink:href="#aQ"/><use transform="matrix(0.08086419753086417,0,0,0.08086419753086417,63.074074074074055,0)" xlink:href="#az"/><use transform="matrix(0.08086419753086417,0,0,0.08086419753086417,71.16049382716048,0)" xlink:href="#aC"/><use transform="matrix(0.08086419753086417,0,0,0.08086419753086417,77.54876543209875,0)" xlink:href="#aL"/><use transform="matrix(0.08086419753086417,0,0,0.08086419753086417,93.72160493827157,0)" xlink:href="#aH"/></g><g id="q"><use transform="matrix(0.08086419753086417,0,0,0.08086419753086417,0,0)" xlink:href="#aJ"/><use transform="matrix(0.08086419753086417,0,0,0.08086419753086417,16.172839506172835,0)" xlink:href="#aQ"/><use transform="matrix(0.08086419753086417,0,0,0.08086419753086417,32.34567901234567,0)" xlink:href="#aR"/><use transform="matrix(0.08086419753086417,0,0,0.08086419753086417,46.90123456790122,0)" xlink:href="#aB"/><use transform="matrix(0.08086419753086417,0,0,0.08086419753086417,71.07962962962961,0)" xlink:href="#aA"/><use transform="matrix(0.08086419753086417,0,0,0.08086419753086417,87.25246913580244,0)" xlink:href="#aH"/><use transform="matrix(0.08086419753086417,0,0,0.08086419753086417,103.42530864197528,0)" xlink:href="#az"/><use transform="matrix(0.08086419753086417,0,0,0.08086419753086417,111.5117283950617,0)" xlink:href="#aZ"/><use transform="matrix(0.08086419753086417,0,0,0.08086419753086417,132.45555555555552,0)" xlink:href="#aA"/><use transform="matrix(0.08086419753086417,0,0,0.08086419753086417,148.62839506172836,0)" xlink:href="#az"/><use transform="matrix(0.08086419753086417,0,0,0.08086419753086417,156.71481481481476,0)" xlink:href="#aQ"/><use transform="matrix(0.08086419753086417,0,0,0.08086419753086417,172.8876543209876,0)" xlink:href="#aC"/><use transform="matrix(0.08086419753086417,0,0,0.08086419753086417,179.27592592592586,0)" xlink:href="#aO"/><use transform="matrix(0.08086419753086417,0,0,0.08086419753086417,185.66419753086413,0)" xlink:href="#aV"/></g><use transform="matrix(0.08086419753086417,0,0,0.08086419753086417,0,0)" xlink:href="#aE" id="r"/><g id="s"><use transform="matrix(0.08086419753086417,0,0,0.08086419753086417,0,0)" xlink:href="#aS"/><use transform="matrix(0.08086419753086417,0,0,0.08086419753086417,19.4074074074074,0)" xlink:href="#aQ"/><use transform="matrix(0.08086419753086417,0,0,0.08086419753086417,35.58024691358024,0)" xlink:href="#aR"/><use transform="matrix(0.08086419753086417,0,0,0.08086419753086417,50.13580246913578,0)" xlink:href="#aB"/><use transform="matrix(0.08086419753086417,0,0,0.08086419753086417,74.31419753086418,0)" xlink:href="#aA"/><use transform="matrix(0.08086419753086417,0,0,0.08086419753086417,90.48703703703701,0)" xlink:href="#aH"/><use transform="matrix(0.08086419753086417,0,0,0.08086419753086417,106.65987654320985,0)" xlink:href="#az"/></g><path d="M137 0h-34L2-248h35l83 218 83-218h36" id="ba"/><path d="M106-169C34-169 62-67 57 0H25v-261h32l-1 103c12-21 28-36 61-36 89 0 53 116 60 194h-32v-121c2-32-8-49-39-48" id="bb"/><g id="t"><use transform="matrix(0.08086419753086417,0,0,0.08086419753086417,0,0)" xlink:href="#aQ"/><use transform="matrix(0.08086419753086417,0,0,0.08086419753086417,16.172839506172835,0)" xlink:href="#aV"/><use transform="matrix(0.08086419753086417,0,0,0.08086419753086417,30.728395061728385,0)" xlink:href="#aV"/><use transform="matrix(0.08086419753086417,0,0,0.08086419753086417,45.283950617283935,0)" xlink:href="#aC"/><use transform="matrix(0.08086419753086417,0,0,0.08086419753086417,51.6722222222222,0)" xlink:href="#aI"/><use transform="matrix(0.08086419753086417,0,0,0.08086419753086417,67.84506172839504,0)" xlink:href="#aH"/><use transform="matrix(0.08086419753086417,0,0,0.08086419753086417,84.01790123456787,0)" xlink:href="#aA"/><use transform="matrix(0.08086419753086417,0,0,0.08086419753086417,100.19074074074071,0)" xlink:href="#aD"/><use transform="matrix(0.08086419753086417,0,0,0.08086419753086417,116.36358024691354,0)" xlink:href="#ba"/><use transform="matrix(0.08086419753086417,0,0,0.08086419753086417,134.15370370370366,0)" xlink:href="#aA"/><use transform="matrix(0.08086419753086417,0,0,0.08086419753086417,150.3265432098765,0)" xlink:href="#bb"/><use transform="matrix(0.08086419753086417,0,0,0.08086419753086417,166.49938271604933,0)" xlink:href="#aC"/><use transform="matrix(0.08086419753086417,0,0,0.08086419753086417,172.8876543209876,0)" xlink:href="#aK"/><use transform="matrix(0.08086419753086417,0,0,0.08086419753086417,187.44320987654314,0)" xlink:href="#aO"/><use transform="matrix(0.08086419753086417,0,0,0.08086419753086417,193.8314814814814,0)" xlink:href="#aA"/></g><g id="u"><use transform="matrix(0.08086419753086417,0,0,0.08086419753086417,0,0)" xlink:href="#ba"/><use transform="matrix(0.08086419753086417,0,0,0.08086419753086417,17.790123456790116,0)" xlink:href="#aA"/><use transform="matrix(0.08086419753086417,0,0,0.08086419753086417,33.96296296296295,0)" xlink:href="#aK"/><use transform="matrix(0.08086419753086417,0,0,0.08086419753086417,48.51851851851849,0)" xlink:href="#bb"/><use transform="matrix(0.08086419753086417,0,0,0.08086419753086417,64.69135802469134,0)" xlink:href="#aC"/><use transform="matrix(0.08086419753086417,0,0,0.08086419753086417,71.07962962962961,0)" xlink:href="#aK"/><use transform="matrix(0.08086419753086417,0,0,0.08086419753086417,85.63518518518515,0)" xlink:href="#aO"/><use transform="matrix(0.08086419753086417,0,0,0.08086419753086417,92.02345679012343,0)" xlink:href="#aA"/></g><g id="v"><use transform="matrix(0.08086419753086417,0,0,0.08086419753086417,0,0)" xlink:href="#aM"/><use transform="matrix(0.08086419753086417,0,0,0.08086419753086417,16.172839506172835,0)" xlink:href="#aV"/><use transform="matrix(0.08086419753086417,0,0,0.08086419753086417,30.728395061728385,0)" xlink:href="#aA"/><use transform="matrix(0.08086419753086417,0,0,0.08086419753086417,46.90123456790122,0)" xlink:href="#aG"/><use transform="matrix(0.08086419753086417,0,0,0.08086419753086417,56.52407407407406,0)" xlink:href="#ay"/><use transform="matrix(0.08086419753086417,0,0,0.08086419753086417,64.61049382716047,0)" xlink:href="#aD"/></g><g id="w"><use transform="matrix(0.08086419753086417,0,0,0.08086419753086417,0,0)" xlink:href="#aL"/><use transform="matrix(0.08086419753086417,0,0,0.08086419753086417,16.172839506172835,0)" xlink:href="#aG"/><use transform="matrix(0.08086419753086417,0,0,0.08086419753086417,25.79567901234567,0)" xlink:href="#aD"/><use transform="matrix(0.08086419753086417,0,0,0.08086419753086417,41.96851851851851,0)" xlink:href="#aA"/><use transform="matrix(0.08086419753086417,0,0,0.08086419753086417,58.141358024691336,0)" xlink:href="#aG"/><use transform="matrix(0.08086419753086417,0,0,0.08086419753086417,67.76419753086418,0)" xlink:href="#aS"/><use transform="matrix(0.08086419753086417,0,0,0.08086419753086417,87.17160493827157,0)" xlink:href="#aQ"/><use transform="matrix(0.08086419753086417,0,0,0.08086419753086417,103.34444444444443,0)" xlink:href="#aO"/><use transform="matrix(0.08086419753086417,0,0,0.08086419753086417,109.73271604938267,0)" xlink:href="#aK"/><use transform="matrix(0.08086419753086417,0,0,0.08086419753086417,124.28827160493825,0)" xlink:href="#aA"/><use transform="matrix(0.08086419753086417,0,0,0.08086419753086417,140.46111111111108,0)" xlink:href="#aD"/></g><g id="x"><use transform="matrix(0.08086419753086417,0,0,0.08086419753086417,0,0)" xlink:href="#aZ"/><use transform="matrix(0.08086419753086417,0,0,0.08086419753086417,20.94382716049382,0)" xlink:href="#aQ"/><use transform="matrix(0.08086419753086417,0,0,0.08086419753086417,37.11666666666666,0)" xlink:href="#az"/><use transform="matrix(0.08086419753086417,0,0,0.08086419753086417,45.20308641975308,0)" xlink:href="#aA"/><use transform="matrix(0.08086419753086417,0,0,0.08086419753086417,61.37592592592591,0)" xlink:href="#aF"/><use transform="matrix(0.08086419753086417,0,0,0.08086419753086417,80.78333333333332,0)" xlink:href="#az"/><use transform="matrix(0.08086419753086417,0,0,0.08086419753086417,88.86975308641975,0)" xlink:href="#aQ"/><use transform="matrix(0.08086419753086417,0,0,0.08086419753086417,105.04259259259257,0)" xlink:href="#aB"/><use transform="matrix(0.08086419753086417,0,0,0.08086419753086417,129.22098765432096,0)" xlink:href="#aJ"/></g><path d="M108 0H70L1-190h34L89-25l56-165h34" id="bc"/><g id="y"><use transform="matrix(0.08086419753086417,0,0,0.08086419753086417,0,0)" xlink:href="#aL"/><use transform="matrix(0.08086419753086417,0,0,0.08086419753086417,16.172839506172835,0)" xlink:href="#aG"/><use transform="matrix(0.08086419753086417,0,0,0.08086419753086417,25.79567901234567,0)" xlink:href="#aD"/><use transform="matrix(0.08086419753086417,0,0,0.08086419753086417,41.96851851851851,0)" xlink:href="#aA"/><use transform="matrix(0.08086419753086417,0,0,0.08086419753086417,58.141358024691336,0)" xlink:href="#aG"/><use transform="matrix(0.08086419753086417,0,0,0.08086419753086417,67.76419753086418,0)" xlink:href="#aZ"/><use transform="matrix(0.08086419753086417,0,0,0.08086419753086417,88.70802469135802,0)" xlink:href="#aA"/><use transform="matrix(0.08086419753086417,0,0,0.08086419753086417,104.88086419753085,0)" xlink:href="#aO"/><use transform="matrix(0.08086419753086417,0,0,0.08086419753086417,111.26913580246912,0)" xlink:href="#aC"/><use transform="matrix(0.08086419753086417,0,0,0.08086419753086417,117.65740740740736,0)" xlink:href="#bc"/><use transform="matrix(0.08086419753086417,0,0,0.08086419753086417,132.21296296296293,0)" xlink:href="#aA"/><use transform="matrix(0.08086419753086417,0,0,0.08086419753086417,148.38580246913577,0)" xlink:href="#aG"/><use transform="matrix(0.08086419753086417,0,0,0.08086419753086417,158.0086419753086,0)" xlink:href="#aA"/><use transform="matrix(0.08086419753086417,0,0,0.08086419753086417,174.18148148148143,0)" xlink:href="#aD"/></g><g id="z"><use transform="matrix(0.08086419753086417,0,0,0.08086419753086417,0,0)" xlink:href="#aL"/><use transform="matrix(0.08086419753086417,0,0,0.08086419753086417,16.172839506172835,0)" xlink:href="#aG"/><use transform="matrix(0.08086419753086417,0,0,0.08086419753086417,25.79567901234567,0)" xlink:href="#aD"/><use transform="matrix(0.08086419753086417,0,0,0.08086419753086417,41.96851851851851,0)" xlink:href="#aA"/><use transform="matrix(0.08086419753086417,0,0,0.08086419753086417,58.141358024691336,0)" xlink:href="#aG"/><use transform="matrix(0.08086419753086417,0,0,0.08086419753086417,67.76419753086418,0)" xlink:href="#aF"/><use transform="matrix(0.08086419753086417,0,0,0.08086419753086417,87.17160493827157,0)" xlink:href="#az"/><use transform="matrix(0.08086419753086417,0,0,0.08086419753086417,95.25802469135802,0)" xlink:href="#aQ"/><use transform="matrix(0.08086419753086417,0,0,0.08086419753086417,111.43086419753085,0)" xlink:href="#az"/><use transform="matrix(0.08086419753086417,0,0,0.08086419753086417,119.51728395061727,0)" xlink:href="#aM"/><use transform="matrix(0.08086419753086417,0,0,0.08086419753086417,135.6901234567901,0)" xlink:href="#aV"/></g><g id="A"><use transform="matrix(0.08086419753086417,0,0,0.08086419753086417,0,0)" xlink:href="#aU"/><use transform="matrix(0.08086419753086417,0,0,0.08086419753086417,22.641975308641968,0)" xlink:href="#aG"/><use transform="matrix(0.08086419753086417,0,0,0.08086419753086417,32.264814814814805,0)" xlink:href="#aD"/><use transform="matrix(0.08086419753086417,0,0,0.08086419753086417,48.43765432098764,0)" xlink:href="#aA"/><use transform="matrix(0.08086419753086417,0,0,0.08086419753086417,64.61049382716047,0)" xlink:href="#aG"/><use transform="matrix(0.08086419753086417,0,0,0.08086419753086417,74.2333333333333,0)" xlink:href="#aF"/><use transform="matrix(0.08086419753086417,0,0,0.08086419753086417,93.64074074074071,0)" xlink:href="#az"/><use transform="matrix(0.08086419753086417,0,0,0.08086419753086417,101.72716049382713,0)" xlink:href="#aQ"/><use transform="matrix(0.08086419753086417,0,0,0.08086419753086417,117.89999999999996,0)" xlink:href="#az"/><use transform="matrix(0.08086419753086417,0,0,0.08086419753086417,125.98641975308638,0)" xlink:href="#aM"/><use transform="matrix(0.08086419753086417,0,0,0.08086419753086417,142.15925925925922,0)" xlink:href="#aV"/></g><path d="M118-107v75H92v-75H18v-26h74v-75h26v75h74v26h-74" id="bd"/><use transform="matrix(0.08086419753086417,0,0,0.08086419753086417,0,0)" xlink:href="#bd" id="B"/><path d="M27 0v-27h64v-190l-56 39v-29l58-41h29v221h61V0H27" id="be"/><path d="M87 75C49 33 22-17 22-94c0-76 28-126 65-167h31c-38 41-64 92-64 168S80 34 118 75H87" id="bf"/><path d="M33-261c38 41 65 92 65 168S71 34 33 75H2C39 34 66-17 66-93S39-220 2-261h31" id="bg"/><path d="M127-220V0H93v-220H8v-28h204v28h-85" id="bh"/><g id="C"><use transform="matrix(0.08086419753086417,0,0,0.08086419753086417,0,0)" xlink:href="#aL"/><use transform="matrix(0.08086419753086417,0,0,0.08086419753086417,16.172839506172835,0)" xlink:href="#aJ"/><use transform="matrix(0.08086419753086417,0,0,0.08086419753086417,32.34567901234567,0)" xlink:href="#aA"/><use transform="matrix(0.08086419753086417,0,0,0.08086419753086417,48.518518518518505,0)" xlink:href="#aG"/><use transform="matrix(0.08086419753086417,0,0,0.08086419753086417,58.141358024691336,0)" xlink:href="#aQ"/><use transform="matrix(0.08086419753086417,0,0,0.08086419753086417,74.31419753086418,0)" xlink:href="#az"/><use transform="matrix(0.08086419753086417,0,0,0.08086419753086417,82.4006172839506,0)" xlink:href="#aC"/><use transform="matrix(0.08086419753086417,0,0,0.08086419753086417,88.78888888888886,0)" xlink:href="#aL"/><use transform="matrix(0.08086419753086417,0,0,0.08086419753086417,104.9617283950617,0)" xlink:href="#aH"/><use transform="matrix(0.08086419753086417,0,0,0.08086419753086417,121.13456790123453,0)" xlink:href="#be"/><use transform="matrix(0.08086419753086417,0,0,0.08086419753086417,137.30740740740737,0)" xlink:href="#bf"/><use transform="matrix(0.08086419753086417,0,0,0.08086419753086417,146.9302469135802,0)" xlink:href="#aJ"/><use transform="matrix(0.08086419753086417,0,0,0.08086419753086417,163.10308641975303,0)" xlink:href="#aQ"/><use transform="matrix(0.08086419753086417,0,0,0.08086419753086417,179.27592592592586,0)" xlink:href="#aG"/><use transform="matrix(0.08086419753086417,0,0,0.08086419753086417,188.8987654320987,0)" xlink:href="#aQ"/><use transform="matrix(0.08086419753086417,0,0,0.08086419753086417,205.07160493827155,0)" xlink:href="#aB"/><use transform="matrix(0.08086419753086417,0,0,0.08086419753086417,229.24999999999991,0)" xlink:href="#aV"/><use transform="matrix(0.08086419753086417,0,0,0.08086419753086417,243.8055555555555,0)" xlink:href="#bg"/><use transform="matrix(0.08086419753086417,0,0,0.08086419753086417,253.42839506172828,0)" xlink:href="#aE"/><use transform="matrix(0.08086419753086417,0,0,0.08086419753086417,261.5148148148147,0)" xlink:href="#aG"/><use transform="matrix(0.08086419753086417,0,0,0.08086419753086417,271.13765432098756,0)" xlink:href="#aA"/><use transform="matrix(0.08086419753086417,0,0,0.08086419753086417,287.31049382716037,0)" xlink:href="#az"/><use transform="matrix(0.08086419753086417,0,0,0.08086419753086417,295.3969135802468,0)" xlink:href="#aM"/><use transform="matrix(0.08086419753086417,0,0,0.08086419753086417,311.5697530864196,0)" xlink:href="#aG"/><use transform="matrix(0.08086419753086417,0,0,0.08086419753086417,321.19259259259246,0)" xlink:href="#aH"/><use transform="matrix(0.08086419753086417,0,0,0.08086419753086417,337.36543209876527,0)" xlink:href="#bh"/><use transform="matrix(0.08086419753086417,0,0,0.08086419753086417,353.45740740740723,0)" xlink:href="#aR"/><use transform="matrix(0.08086419753086417,0,0,0.08086419753086417,368.0129629629628,0)" xlink:href="#aJ"/><use transform="matrix(0.08086419753086417,0,0,0.08086419753086417,384.1858024691356,0)" xlink:href="#aA"/></g><path d="M16-82v-28h88v28H16" id="bi"/><use transform="matrix(0.08086419753086417,0,0,0.08086419753086417,0,0)" xlink:href="#bi" id="D"/><path d="M101-251c82-7 93 87 43 132L82-64C71-53 59-42 53-27h129V0H18c2-99 128-94 128-182 0-28-16-43-45-43s-46 15-49 41l-32-3c6-41 34-60 81-64" id="bj"/><g id="E"><use transform="matrix(0.08086419753086417,0,0,0.08086419753086417,0,0)" xlink:href="#aL"/><use transform="matrix(0.08086419753086417,0,0,0.08086419753086417,16.172839506172835,0)" xlink:href="#aJ"/><use transform="matrix(0.08086419753086417,0,0,0.08086419753086417,32.34567901234567,0)" xlink:href="#aA"/><use transform="matrix(0.08086419753086417,0,0,0.08086419753086417,48.518518518518505,0)" xlink:href="#aG"/><use transform="matrix(0.08086419753086417,0,0,0.08086419753086417,58.141358024691336,0)" xlink:href="#aQ"/><use transform="matrix(0.08086419753086417,0,0,0.08086419753086417,74.31419753086418,0)" xlink:href="#az"/><use transform="matrix(0.08086419753086417,0,0,0.08086419753086417,82.4006172839506,0)" xlink:href="#aC"/><use transform="matrix(0.08086419753086417,0,0,0.08086419753086417,88.78888888888886,0)" xlink:href="#aL"/><use transform="matrix(0.08086419753086417,0,0,0.08086419753086417,104.9617283950617,0)" xlink:href="#aH"/><use transform="matrix(0.08086419753086417,0,0,0.08086419753086417,121.13456790123453,0)" xlink:href="#bj"/><use transform="matrix(0.08086419753086417,0,0,0.08086419753086417,137.30740740740737,0)" xlink:href="#bf"/><use transform="matrix(0.08086419753086417,0,0,0.08086419753086417,146.9302469135802,0)" xlink:href="#aJ"/><use transform="matrix(0.08086419753086417,0,0,0.08086419753086417,163.10308641975303,0)" xlink:href="#aQ"/><use transform="matrix(0.08086419753086417,0,0,0.08086419753086417,179.27592592592586,0)" xlink:href="#aG"/><use transform="matrix(0.08086419753086417,0,0,0.08086419753086417,188.8987654320987,0)" xlink:href="#aQ"/><use transform="matrix(0.08086419753086417,0,0,0.08086419753086417,205.07160493827155,0)" xlink:href="#aB"/><use transform="matrix(0.08086419753086417,0,0,0.08086419753086417,229.24999999999991,0)" xlink:href="#aV"/><use transform="matrix(0.08086419753086417,0,0,0.08086419753086417,243.8055555555555,0)" xlink:href="#bg"/></g><path d="M126-127c33 6 58 20 58 59 0 88-139 92-164 29-3-8-5-16-6-25l32-3c6 27 21 44 54 44 32 0 52-15 52-46 0-38-36-46-79-43v-28c39 1 72-4 72-42 0-27-17-43-46-43-28 0-47 15-49 41l-32-3c6-42 35-63 81-64 48-1 79 21 79 65 0 36-21 52-52 59" id="bk"/><g id="F"><use transform="matrix(0.08086419753086417,0,0,0.08086419753086417,0,0)" xlink:href="#aL"/><use transform="matrix(0.08086419753086417,0,0,0.08086419753086417,16.172839506172835,0)" xlink:href="#aJ"/><use transform="matrix(0.08086419753086417,0,0,0.08086419753086417,32.34567901234567,0)" xlink:href="#aA"/><use transform="matrix(0.08086419753086417,0,0,0.08086419753086417,48.518518518518505,0)" xlink:href="#aG"/><use transform="matrix(0.08086419753086417,0,0,0.08086419753086417,58.141358024691336,0)" xlink:href="#aQ"/><use transform="matrix(0.08086419753086417,0,0,0.08086419753086417,74.31419753086418,0)" xlink:href="#az"/><use transform="matrix(0.08086419753086417,0,0,0.08086419753086417,82.4006172839506,0)" xlink:href="#aC"/><use transform="matrix(0.08086419753086417,0,0,0.08086419753086417,88.78888888888886,0)" xlink:href="#aL"/><use transform="matrix(0.08086419753086417,0,0,0.08086419753086417,104.9617283950617,0)" xlink:href="#aH"/><use transform="matrix(0.08086419753086417,0,0,0.08086419753086417,121.13456790123453,0)" xlink:href="#bk"/><use transform="matrix(0.08086419753086417,0,0,0.08086419753086417,137.30740740740737,0)" xlink:href="#bf"/><use transform="matrix(0.08086419753086417,0,0,0.08086419753086417,146.9302469135802,0)" xlink:href="#bg"/></g><path d="M15-91v-56l181-69v40L49-119l147 57v40" id="bl"/><path d="M185-48c-13 30-37 53-82 52C43 2 14-33 14-96s30-98 90-98c62 0 83 45 84 108H66c0 31 8 55 39 56 18 0 30-7 34-22zm-45-69c5-46-57-63-70-21-2 6-4 13-4 21h74" id="bm"/><path d="M135-194c87-1 58 113 63 194h-50c-7-57 23-157-34-157-59 0-34 97-39 157H25l-1-190h47c2 12-1 28 3 38 12-26 28-41 61-42" id="bn"/><path d="M85 4C-2 5 27-109 22-190h50c7 57-23 150 33 157 60-5 35-97 40-157h50l1 190h-47c-2-12 1-28-3-38-12 25-28 42-61 42" id="bo"/><path d="M220-157c-53 9-28 100-34 157h-49v-107c1-27-5-49-29-50C55-147 81-57 75 0H25l-1-190h47c2 12-1 28 3 38 10-53 101-56 108 0 13-22 24-43 59-42 82 1 51 116 57 194h-49v-107c-1-25-5-48-29-50" id="bp"/><path d="M15-22v-40l146-57-146-57v-40l181 69v56" id="bq"/><g id="G"><use transform="matrix(0.08086419753086417,0,0,0.08086419753086417,0,0)" xlink:href="#bl"/><use transform="matrix(0.08086419753086417,0,0,0.08086419753086417,16.981481481481477,0)" xlink:href="#bm"/><use transform="matrix(0.08086419753086417,0,0,0.08086419753086417,33.154320987654316,0)" xlink:href="#bn"/><use transform="matrix(0.08086419753086417,0,0,0.08086419753086417,50.86358024691357,0)" xlink:href="#bo"/><use transform="matrix(0.08086419753086417,0,0,0.08086419753086417,68.57283950617283,0)" xlink:href="#bp"/><use transform="matrix(0.08086419753086417,0,0,0.08086419753086417,94.44938271604936,0)" xlink:href="#bq"/></g><path d="M140-251c80 0 125 45 125 126S219 4 139 4C58 4 15-44 15-125s44-126 125-126zm-1 214c52 0 73-35 73-88 0-50-21-86-72-86-52 0-73 35-73 86s22 88 72 88" id="br"/><path d="M135-150c-39-12-60 13-60 57V0H25l-1-190h47c2 13-1 29 3 40 6-28 27-53 61-41v41" id="bs"/><path d="M88-194c31-1 46 15 58 34l-1-101h50l1 261h-48c-2-10 0-23-3-31C134-8 116 4 84 4 32 4 16-41 15-95c0-56 19-97 73-99zm17 164c33 0 40-30 41-66 1-37-9-64-41-64s-38 30-39 65c0 43 13 65 39 65" id="bt"/><path d="M169-182c-1-43-94-46-97-3 18 66 151 10 154 114 3 95-165 93-204 36-6-8-10-19-12-30l50-8c3 46 112 56 116 5-17-69-150-10-154-114-4-87 153-88 188-35 5 8 8 18 10 28" id="bu"/><path d="M115-3C79 11 28 4 28-45v-112H4v-33h27l15-45h31v45h36v33H77v99c-1 23 16 31 38 25v30" id="bv"/><path d="M133-34C117-15 103 5 69 4 32 3 11-16 11-54c-1-60 55-63 116-61 1-26-3-47-28-47-18 1-26 9-28 27l-52-2c7-38 36-58 82-57s74 22 75 68l1 82c-1 14 12 18 25 15v27c-30 8-71 5-69-32zm-48 3c29 0 43-24 42-57-32 0-66-3-65 30 0 17 8 27 23 27" id="bw"/><path d="M137-138c1-29-70-34-71-4 15 46 118 7 119 86 1 83-164 76-172 9l43-7c4 19 20 25 44 25 33 8 57-30 24-41C81-84 22-81 20-136c-2-80 154-74 161-7" id="bx"/><g id="H"><use transform="matrix(0.08086419753086417,0,0,0.08086419753086417,0,0)" xlink:href="#br"/><use transform="matrix(0.08086419753086417,0,0,0.08086419753086417,22.641975308641968,0)" xlink:href="#bs"/><use transform="matrix(0.08086419753086417,0,0,0.08086419753086417,33.96296296296295,0)" xlink:href="#bt"/><use transform="matrix(0.08086419753086417,0,0,0.08086419753086417,51.6722222222222,0)" xlink:href="#bm"/><use transform="matrix(0.08086419753086417,0,0,0.08086419753086417,67.84506172839504,0)" xlink:href="#bs"/><use transform="matrix(0.08086419753086417,0,0,0.08086419753086417,79.16604938271603,0)" xlink:href="#bu"/><use transform="matrix(0.08086419753086417,0,0,0.08086419753086417,98.57345679012343,0)" xlink:href="#bv"/><use transform="matrix(0.08086419753086417,0,0,0.08086419753086417,108.19629629629625,0)" xlink:href="#bw"/><use transform="matrix(0.08086419753086417,0,0,0.08086419753086417,124.36913580246909,0)" xlink:href="#bv"/><use transform="matrix(0.08086419753086417,0,0,0.08086419753086417,133.99197530864194,0)" xlink:href="#bo"/><use transform="matrix(0.08086419753086417,0,0,0.08086419753086417,151.7012345679012,0)" xlink:href="#bx"/></g><path d="M233-177c-1 41-23 64-60 70L243 0h-38l-65-103H63V0H30v-248c88 3 205-21 203 71zM63-129c60-2 137 13 137-47 0-61-80-42-137-45v92" id="by"/><path d="M212-179c-10-28-35-45-73-45-59 0-87 40-87 99 0 60 29 101 89 101 43 0 62-24 78-52l27 14C228-24 195 4 139 4 59 4 22-46 18-125c-6-104 99-153 187-111 19 9 31 26 39 46" id="bz"/><path d="M30 0v-248h187v28H63v79h144v27H63v87h162V0H30" id="bA"/><path d="M143 4C61 4 22-44 18-125c-5-107 100-154 193-111 17 8 29 25 37 43l-32 9c-13-25-37-40-76-40-61 0-88 39-88 99 0 61 29 100 91 101 35 0 62-11 79-27v-45h-74v-28h105v86C228-13 192 4 143 4" id="bB"/><g id="I"><use transform="matrix(0.08086419753086417,0,0,0.08086419753086417,0,0)" xlink:href="#aS"/><use transform="matrix(0.08086419753086417,0,0,0.08086419753086417,19.4074074074074,0)" xlink:href="#by"/><use transform="matrix(0.08086419753086417,0,0,0.08086419753086417,40.35123456790122,0)" xlink:href="#aU"/><use transform="matrix(0.08086419753086417,0,0,0.08086419753086417,62.99320987654319,0)" xlink:href="#bz"/><use transform="matrix(0.08086419753086417,0,0,0.08086419753086417,83.93703703703702,0)" xlink:href="#bA"/><use transform="matrix(0.08086419753086417,0,0,0.08086419753086417,103.34444444444443,0)" xlink:href="#aF"/><use transform="matrix(0.08086419753086417,0,0,0.08086419753086417,122.75185185185182,0)" xlink:href="#aF"/><use transform="matrix(0.08086419753086417,0,0,0.08086419753086417,142.15925925925922,0)" xlink:href="#ay"/><use transform="matrix(0.08086419753086417,0,0,0.08086419753086417,150.24567901234565,0)" xlink:href="#aT"/><use transform="matrix(0.08086419753086417,0,0,0.08086419753086417,171.18950617283946,0)" xlink:href="#bB"/></g><g id="J"><use transform="matrix(0.08086419753086417,0,0,0.08086419753086417,0,0)" xlink:href="#aZ"/><use transform="matrix(0.08086419753086417,0,0,0.08086419753086417,20.94382716049382,0)" xlink:href="#bA"/><use transform="matrix(0.08086419753086417,0,0,0.08086419753086417,40.35123456790122,0)" xlink:href="#aW"/><use transform="matrix(0.08086419753086417,0,0,0.08086419753086417,56.52407407407406,0)" xlink:href="#ay"/><use transform="matrix(0.08086419753086417,0,0,0.08086419753086417,64.61049382716047,0)" xlink:href="#ba"/><use transform="matrix(0.08086419753086417,0,0,0.08086419753086417,84.01790123456787,0)" xlink:href="#bA"/><use transform="matrix(0.08086419753086417,0,0,0.08086419753086417,103.42530864197528,0)" xlink:href="#by"/><use transform="matrix(0.08086419753086417,0,0,0.08086419753086417,124.36913580246909,0)" xlink:href="#bA"/><use transform="matrix(0.08086419753086417,0,0,0.08086419753086417,143.7765432098765,0)" xlink:href="#aZ"/></g><path d="M205 0l-28-72H64L36 0H1l101-248h38L239 0h-34zm-38-99l-47-123c-12 45-31 82-46 123h93" id="bC"/><g id="K"><use transform="matrix(0.08086419753086417,0,0,0.08086419753086417,0,0)" xlink:href="#bz"/><use transform="matrix(0.08086419753086417,0,0,0.08086419753086417,20.94382716049382,0)" xlink:href="#bC"/><use transform="matrix(0.08086419753086417,0,0,0.08086419753086417,40.35123456790122,0)" xlink:href="#aT"/><use transform="matrix(0.08086419753086417,0,0,0.08086419753086417,61.29506172839504,0)" xlink:href="#bz"/><use transform="matrix(0.08086419753086417,0,0,0.08086419753086417,82.23888888888887,0)" xlink:href="#bA"/><use transform="matrix(0.08086419753086417,0,0,0.08086419753086417,101.64629629629626,0)" xlink:href="#aW"/><use transform="matrix(0.08086419753086417,0,0,0.08086419753086417,117.81913580246909,0)" xlink:href="#aW"/><use transform="matrix(0.08086419753086417,0,0,0.08086419753086417,133.99197530864194,0)" xlink:href="#bA"/><use transform="matrix(0.08086419753086417,0,0,0.08086419753086417,153.39938271604933,0)" xlink:href="#aZ"/></g><g id="L"><use transform="matrix(0.08086419753086417,0,0,0.08086419753086417,0,0)" xlink:href="#aW"/><use transform="matrix(0.08086419753086417,0,0,0.08086419753086417,16.172839506172835,0)" xlink:href="#aL"/><use transform="matrix(0.08086419753086417,0,0,0.08086419753086417,32.34567901234567,0)" xlink:href="#aK"/><use transform="matrix(0.08086419753086417,0,0,0.08086419753086417,46.90123456790122,0)" xlink:href="#aQ"/><use transform="matrix(0.08086419753086417,0,0,0.08086419753086417,63.074074074074055,0)" xlink:href="#az"/><use transform="matrix(0.08086419753086417,0,0,0.08086419753086417,71.16049382716048,0)" xlink:href="#aC"/><use transform="matrix(0.08086419753086417,0,0,0.08086419753086417,77.54876543209875,0)" xlink:href="#aL"/><use transform="matrix(0.08086419753086417,0,0,0.08086419753086417,93.72160493827157,0)" xlink:href="#aH"/></g><g id="M"><use transform="matrix(0.08086419753086417,0,0,0.08086419753086417,0,0)" xlink:href="#aO"/><use transform="matrix(0.08086419753086417,0,0,0.08086419753086417,6.38827160493827,0)" xlink:href="#aL"/><use transform="matrix(0.08086419753086417,0,0,0.08086419753086417,22.561111111111103,0)" xlink:href="#aI"/><use transform="matrix(0.08086419753086417,0,0,0.08086419753086417,38.73395061728394,0)" xlink:href="#aC"/><use transform="matrix(0.08086419753086417,0,0,0.08086419753086417,45.122222222222206,0)" xlink:href="#az"/><use transform="matrix(0.08086419753086417,0,0,0.08086419753086417,53.20864197530862,0)" xlink:href="#aM"/><use transform="matrix(0.08086419753086417,0,0,0.08086419753086417,69.38148148148146,0)" xlink:href="#aD"/><use transform="matrix(0.08086419753086417,0,0,0.08086419753086417,85.5543209876543,0)" xlink:href="#aA"/></g><g id="N"><use transform="matrix(0.08086419753086417,0,0,0.08086419753086417,0,0)" xlink:href="#aO"/><use transform="matrix(0.08086419753086417,0,0,0.08086419753086417,6.38827160493827,0)" xlink:href="#aQ"/><use transform="matrix(0.08086419753086417,0,0,0.08086419753086417,22.561111111111103,0)" xlink:href="#az"/><use transform="matrix(0.08086419753086417,0,0,0.08086419753086417,30.64753086419752,0)" xlink:href="#aC"/><use transform="matrix(0.08086419753086417,0,0,0.08086419753086417,37.03580246913579,0)" xlink:href="#az"/><use transform="matrix(0.08086419753086417,0,0,0.08086419753086417,45.122222222222206,0)" xlink:href="#aM"/><use transform="matrix(0.08086419753086417,0,0,0.08086419753086417,61.29506172839504,0)" xlink:href="#aD"/><use transform="matrix(0.08086419753086417,0,0,0.08086419753086417,77.46790123456788,0)" xlink:href="#aA"/></g><g id="O"><use transform="matrix(0.08086419753086417,0,0,0.08086419753086417,0,0)" xlink:href="#aH"/><use transform="matrix(0.08086419753086417,0,0,0.08086419753086417,16.172839506172835,0)" xlink:href="#aQ"/><use transform="matrix(0.08086419753086417,0,0,0.08086419753086417,32.34567901234567,0)" xlink:href="#aB"/><use transform="matrix(0.08086419753086417,0,0,0.08086419753086417,56.52407407407406,0)" xlink:href="#aA"/></g><g id="P"><use transform="matrix(0.08086419753086417,0,0,0.08086419753086417,0,0)" xlink:href="#aF"/><use transform="matrix(0.08086419753086417,0,0,0.08086419753086417,19.4074074074074,0)" xlink:href="#az"/><use transform="matrix(0.08086419753086417,0,0,0.08086419753086417,27.49382716049382,0)" xlink:href="#aG"/><use transform="matrix(0.08086419753086417,0,0,0.08086419753086417,37.11666666666665,0)" xlink:href="#aC"/><use transform="matrix(0.08086419753086417,0,0,0.08086419753086417,43.50493827160492,0)" xlink:href="#aH"/><use transform="matrix(0.08086419753086417,0,0,0.08086419753086417,59.677777777777756,0)" xlink:href="#aI"/></g><g id="Q"><use transform="matrix(0.08086419753086417,0,0,0.08086419753086417,0,0)" xlink:href="#aS"/><use transform="matrix(0.08086419753086417,0,0,0.08086419753086417,19.4074074074074,0)" xlink:href="#aQ"/><use transform="matrix(0.08086419753086417,0,0,0.08086419753086417,35.58024691358024,0)" xlink:href="#aR"/><use transform="matrix(0.08086419753086417,0,0,0.08086419753086417,50.13580246913578,0)" xlink:href="#aB"/><use transform="matrix(0.08086419753086417,0,0,0.08086419753086417,74.31419753086418,0)" xlink:href="#aA"/><use transform="matrix(0.08086419753086417,0,0,0.08086419753086417,90.48703703703701,0)" xlink:href="#aH"/><use transform="matrix(0.08086419753086417,0,0,0.08086419753086417,106.65987654320985,0)" xlink:href="#az"/></g><g id="R"><use transform="matrix(0.08086419753086417,0,0,0.08086419753086417,0,0)" xlink:href="#aV"/><use transform="matrix(0.08086419753086417,0,0,0.08086419753086417,14.55555555555555,0)" xlink:href="#az"/><use transform="matrix(0.08086419753086417,0,0,0.08086419753086417,22.641975308641968,0)" xlink:href="#aQ"/><use transform="matrix(0.08086419753086417,0,0,0.08086419753086417,38.8148148148148,0)" xlink:href="#az"/><use transform="matrix(0.08086419753086417,0,0,0.08086419753086417,46.90123456790122,0)" xlink:href="#aM"/><use transform="matrix(0.08086419753086417,0,0,0.08086419753086417,63.074074074074055,0)" xlink:href="#aV"/></g><g id="S"><use transform="matrix(0.08086419753086417,0,0,0.08086419753086417,0,0)" xlink:href="#aS"/><use transform="matrix(0.08086419753086417,0,0,0.08086419753086417,19.4074074074074,0)" xlink:href="#aQ"/><use transform="matrix(0.08086419753086417,0,0,0.08086419753086417,35.58024691358024,0)" xlink:href="#aR"/><use transform="matrix(0.08086419753086417,0,0,0.08086419753086417,50.13580246913578,0)" xlink:href="#aB"/><use transform="matrix(0.08086419753086417,0,0,0.08086419753086417,74.31419753086418,0)" xlink:href="#aA"/><use transform="matrix(0.08086419753086417,0,0,0.08086419753086417,90.48703703703701,0)" xlink:href="#aH"/><use transform="matrix(0.08086419753086417,0,0,0.08086419753086417,106.65987654320985,0)" xlink:href="#az"/><use transform="matrix(0.08086419753086417,0,0,0.08086419753086417,114.74629629629626,0)" xlink:href="#aF"/><use transform="matrix(0.08086419753086417,0,0,0.08086419753086417,134.15370370370366,0)" xlink:href="#az"/><use transform="matrix(0.08086419753086417,0,0,0.08086419753086417,142.24012345679006,0)" xlink:href="#aQ"/><use transform="matrix(0.08086419753086417,0,0,0.08086419753086417,158.4129629629629,0)" xlink:href="#az"/><use transform="matrix(0.08086419753086417,0,0,0.08086419753086417,166.4993827160493,0)" xlink:href="#aM"/><use transform="matrix(0.08086419753086417,0,0,0.08086419753086417,182.67222222222213,0)" xlink:href="#aV"/></g><path d="M240 0l2-218c-23 76-54 145-80 218h-23L58-218 59 0H30v-248h44l77 211c21-75 51-140 76-211h43V0h-30" id="bD"/><g id="T"><use transform="matrix(0.08086419753086417,0,0,0.08086419753086417,0,0)" xlink:href="#aJ"/><use transform="matrix(0.08086419753086417,0,0,0.08086419753086417,16.172839506172835,0)" xlink:href="#aQ"/><use transform="matrix(0.08086419753086417,0,0,0.08086419753086417,32.34567901234567,0)" xlink:href="#aR"/><use transform="matrix(0.08086419753086417,0,0,0.08086419753086417,46.90123456790122,0)" xlink:href="#aB"/><use transform="matrix(0.08086419753086417,0,0,0.08086419753086417,71.07962962962961,0)" xlink:href="#aA"/><use transform="matrix(0.08086419753086417,0,0,0.08086419753086417,87.25246913580244,0)" xlink:href="#aH"/><use transform="matrix(0.08086419753086417,0,0,0.08086419753086417,103.42530864197528,0)" xlink:href="#az"/><use transform="matrix(0.08086419753086417,0,0,0.08086419753086417,111.5117283950617,0)" xlink:href="#bD"/><use transform="matrix(0.08086419753086417,0,0,0.08086419753086417,135.69012345679008,0)" xlink:href="#aL"/><use transform="matrix(0.08086419753086417,0,0,0.08086419753086417,151.8629629629629,0)" xlink:href="#aD"/><use transform="matrix(0.08086419753086417,0,0,0.08086419753086417,168.03580246913575,0)" xlink:href="#aA"/></g><use transform="matrix(0.08086419753086417,0,0,0.08086419753086417,0,0)" xlink:href="#aE" id="U"/><g id="V"><use transform="matrix(0.08086419753086417,0,0,0.08086419753086417,0,0)" xlink:href="#aS"/><use transform="matrix(0.08086419753086417,0,0,0.08086419753086417,19.4074074074074,0)" xlink:href="#aQ"/><use transform="matrix(0.08086419753086417,0,0,0.08086419753086417,35.58024691358024,0)" xlink:href="#aR"/><use transform="matrix(0.08086419753086417,0,0,0.08086419753086417,50.13580246913578,0)" xlink:href="#aB"/><use transform="matrix(0.08086419753086417,0,0,0.08086419753086417,74.31419753086418,0)" xlink:href="#aA"/><use transform="matrix(0.08086419753086417,0,0,0.08086419753086417,90.48703703703701,0)" xlink:href="#aH"/><use transform="matrix(0.08086419753086417,0,0,0.08086419753086417,106.65987654320985,0)" xlink:href="#az"/><use transform="matrix(0.08086419753086417,0,0,0.08086419753086417,114.74629629629626,0)" xlink:href="#bD"/><use transform="matrix(0.08086419753086417,0,0,0.08086419753086417,138.92469135802466,0)" xlink:href="#aL"/><use transform="matrix(0.08086419753086417,0,0,0.08086419753086417,155.0975308641975,0)" xlink:href="#aD"/><use transform="matrix(0.08086419753086417,0,0,0.08086419753086417,171.2703703703703,0)" xlink:href="#aA"/></g><g id="W"><use transform="matrix(0.08086419753086417,0,0,0.08086419753086417,0,0)" xlink:href="#aQ"/><use transform="matrix(0.08086419753086417,0,0,0.08086419753086417,16.172839506172835,0)" xlink:href="#aB"/><use transform="matrix(0.08086419753086417,0,0,0.08086419753086417,40.35123456790122,0)" xlink:href="#aL"/><use transform="matrix(0.08086419753086417,0,0,0.08086419753086417,56.52407407407406,0)" xlink:href="#aM"/><use transform="matrix(0.08086419753086417,0,0,0.08086419753086417,72.6969135802469,0)" xlink:href="#aH"/><use transform="matrix(0.08086419753086417,0,0,0.08086419753086417,88.86975308641975,0)" xlink:href="#az"/></g><g id="X"><use transform="matrix(0.08086419753086417,0,0,0.08086419753086417,0,0)" xlink:href="#aZ"/><use transform="matrix(0.08086419753086417,0,0,0.08086419753086417,20.94382716049382,0)" xlink:href="#aL"/><use transform="matrix(0.08086419753086417,0,0,0.08086419753086417,37.11666666666666,0)" xlink:href="#aM"/><use transform="matrix(0.08086419753086417,0,0,0.08086419753086417,53.289506172839495,0)" xlink:href="#aN"/><use transform="matrix(0.08086419753086417,0,0,0.08086419753086417,69.46234567901233,0)" xlink:href="#aO"/><use transform="matrix(0.08086419753086417,0,0,0.08086419753086417,75.8506172839506,0)" xlink:href="#aA"/></g><path d="M24-248c93 1 206-16 204 79-1 75-69 88-152 82V0H24v-248zm52 121c47 0 100 7 100-41 0-47-54-39-100-39v80" id="bE"/><path d="M123 10C108 53 80 86 19 72V37c35 8 53-11 59-39L3-190h52l48 148c12-52 28-100 44-148h51" id="bF"/><g id="Y"><use transform="matrix(0.08086419753086417,0,0,0.08086419753086417,0,0)" xlink:href="#bE"/><use transform="matrix(0.08086419753086417,0,0,0.08086419753086417,19.4074074074074,0)" xlink:href="#bw"/><use transform="matrix(0.08086419753086417,0,0,0.08086419753086417,35.58024691358024,0)" xlink:href="#bF"/><use transform="matrix(0.08086419753086417,0,0,0.08086419753086417,51.75308641975308,0)" xlink:href="#bp"/><use transform="matrix(0.08086419753086417,0,0,0.08086419753086417,77.6296296296296,0)" xlink:href="#bm"/><use transform="matrix(0.08086419753086417,0,0,0.08086419753086417,93.80246913580244,0)" xlink:href="#bn"/><use transform="matrix(0.08086419753086417,0,0,0.08086419753086417,111.5117283950617,0)" xlink:href="#bv"/><use transform="matrix(0.08086419753086417,0,0,0.08086419753086417,121.13456790123453,0)" xlink:href="#bu"/><use transform="matrix(0.08086419753086417,0,0,0.08086419753086417,140.54197530864192,0)" xlink:href="#bv"/><use transform="matrix(0.08086419753086417,0,0,0.08086419753086417,150.16481481481475,0)" xlink:href="#bw"/><use transform="matrix(0.08086419753086417,0,0,0.08086419753086417,166.3376543209876,0)" xlink:href="#bv"/><use transform="matrix(0.08086419753086417,0,0,0.08086419753086417,175.9604938271604,0)" xlink:href="#bo"/><use transform="matrix(0.08086419753086417,0,0,0.08086419753086417,193.66975308641966,0)" xlink:href="#bx"/></g><g id="Z"><use transform="matrix(0.08086419753086417,0,0,0.08086419753086417,0,0)" xlink:href="#aS"/><use transform="matrix(0.08086419753086417,0,0,0.08086419753086417,17.224074074074068,0)" xlink:href="#bC"/><use transform="matrix(0.08086419753086417,0,0,0.08086419753086417,36.63148148148147,0)" xlink:href="#ay"/><use transform="matrix(0.08086419753086417,0,0,0.08086419753086417,44.71790123456789,0)" xlink:href="#aZ"/></g><path d="M232-93c-1 65-40 97-104 97C67 4 28-28 28-90v-158h33c8 89-33 224 67 224 102 0 64-133 71-224h33v155" id="bG"/><g id="aa"><use transform="matrix(0.08086419753086417,0,0,0.08086419753086417,0,0)" xlink:href="#bG"/><use transform="matrix(0.08086419753086417,0,0,0.08086419753086417,20.94382716049382,0)" xlink:href="#aT"/><use transform="matrix(0.08086419753086417,0,0,0.08086419753086417,41.88765432098764,0)" xlink:href="#aS"/><use transform="matrix(0.08086419753086417,0,0,0.08086419753086417,59.11172839506172,0)" xlink:href="#bC"/><use transform="matrix(0.08086419753086417,0,0,0.08086419753086417,78.51913580246912,0)" xlink:href="#ay"/><use transform="matrix(0.08086419753086417,0,0,0.08086419753086417,86.60555555555554,0)" xlink:href="#aZ"/></g><path d="M230 0l2-204L168 0h-37L68-204 70 0H24v-248h70l56 185 57-185h69V0h-46" id="bH"/><path d="M110-194c64 0 96 36 96 99 0 64-35 99-97 99-61 0-95-36-95-99 0-62 34-99 96-99zm-1 164c35 0 45-28 45-65 0-40-10-65-43-65-34 0-45 26-45 65 0 36 10 65 43 65" id="bI"/><g id="ab"><use transform="matrix(0.08086419753086417,0,0,0.08086419753086417,0,0)" xlink:href="#bE"/><use transform="matrix(0.08086419753086417,0,0,0.08086419753086417,19.4074074074074,0)" xlink:href="#bw"/><use transform="matrix(0.08086419753086417,0,0,0.08086419753086417,35.58024691358024,0)" xlink:href="#bF"/><use transform="matrix(0.08086419753086417,0,0,0.08086419753086417,51.75308641975308,0)" xlink:href="#bp"/><use transform="matrix(0.08086419753086417,0,0,0.08086419753086417,77.6296296296296,0)" xlink:href="#bm"/><use transform="matrix(0.08086419753086417,0,0,0.08086419753086417,93.80246913580244,0)" xlink:href="#bn"/><use transform="matrix(0.08086419753086417,0,0,0.08086419753086417,111.5117283950617,0)" xlink:href="#bv"/><use transform="matrix(0.08086419753086417,0,0,0.08086419753086417,121.13456790123453,0)" xlink:href="#bH"/><use transform="matrix(0.08086419753086417,0,0,0.08086419753086417,145.31296296296293,0)" xlink:href="#bI"/><use transform="matrix(0.08086419753086417,0,0,0.08086419753086417,163.02222222222218,0)" xlink:href="#bt"/><use transform="matrix(0.08086419753086417,0,0,0.08086419753086417,180.7314814814814,0)" xlink:href="#bm"/></g><g id="ac"><use transform="matrix(0.08086419753086417,0,0,0.08086419753086417,0,0)" xlink:href="#bz"/><use transform="matrix(0.08086419753086417,0,0,0.08086419753086417,20.94382716049382,0)" xlink:href="#bC"/><use transform="matrix(0.08086419753086417,0,0,0.08086419753086417,40.35123456790122,0)" xlink:href="#by"/><use transform="matrix(0.08086419753086417,0,0,0.08086419753086417,61.29506172839504,0)" xlink:href="#aZ"/></g><g id="ae"><use transform="matrix(0.08086419753086417,0,0,0.08086419753086417,0,0)" xlink:href="#ba"/><use transform="matrix(0.08086419753086417,0,0,0.08086419753086417,17.790123456790116,0)" xlink:href="#aA"/><use transform="matrix(0.08086419753086417,0,0,0.08086419753086417,33.96296296296295,0)" xlink:href="#bb"/><use transform="matrix(0.08086419753086417,0,0,0.08086419753086417,50.13580246913578,0)" xlink:href="#aC"/><use transform="matrix(0.08086419753086417,0,0,0.08086419753086417,56.52407407407404,0)" xlink:href="#aK"/><use transform="matrix(0.08086419753086417,0,0,0.08086419753086417,71.07962962962961,0)" xlink:href="#aO"/><use transform="matrix(0.08086419753086417,0,0,0.08086419753086417,77.46790123456788,0)" xlink:href="#aA"/></g><g id="af"><use transform="matrix(0.08086419753086417,0,0,0.08086419753086417,0,0)" xlink:href="#bc"/><use transform="matrix(0.08086419753086417,0,0,0.08086419753086417,14.55555555555555,0)" xlink:href="#aA"/><use transform="matrix(0.08086419753086417,0,0,0.08086419753086417,30.728395061728385,0)" xlink:href="#bb"/><use transform="matrix(0.08086419753086417,0,0,0.08086419753086417,46.90123456790122,0)" xlink:href="#aC"/><use transform="matrix(0.08086419753086417,0,0,0.08086419753086417,53.28950617283949,0)" xlink:href="#aK"/><use transform="matrix(0.08086419753086417,0,0,0.08086419753086417,67.84506172839504,0)" xlink:href="#aO"/><use transform="matrix(0.08086419753086417,0,0,0.08086419753086417,74.2333333333333,0)" xlink:href="#aA"/><use transform="matrix(0.08086419753086417,0,0,0.08086419753086417,90.40617283950614,0)" xlink:href="#aT"/><use transform="matrix(0.08086419753086417,0,0,0.08086419753086417,111.34999999999997,0)" xlink:href="#aL"/></g><g id="ag"><use transform="matrix(0.08086419753086417,0,0,0.08086419753086417,0,0)" xlink:href="#aK"/><use transform="matrix(0.08086419753086417,0,0,0.08086419753086417,14.55555555555555,0)" xlink:href="#aQ"/><use transform="matrix(0.08086419753086417,0,0,0.08086419753086417,30.728395061728385,0)" xlink:href="#aJ"/><use transform="matrix(0.08086419753086417,0,0,0.08086419753086417,46.90123456790122,0)" xlink:href="#aQ"/><use transform="matrix(0.08086419753086417,0,0,0.08086419753086417,63.074074074074055,0)" xlink:href="#aK"/><use transform="matrix(0.08086419753086417,0,0,0.08086419753086417,77.6296296296296,0)" xlink:href="#aC"/><use transform="matrix(0.08086419753086417,0,0,0.08086419753086417,84.01790123456787,0)" xlink:href="#az"/><use transform="matrix(0.08086419753086417,0,0,0.08086419753086417,92.10432098765429,0)" xlink:href="#aR"/></g><g id="ah"><use transform="matrix(0.08086419753086417,0,0,0.08086419753086417,0,0)" xlink:href="#ay"/><use transform="matrix(0.08086419753086417,0,0,0.08086419753086417,8.086419753086417,0)" xlink:href="#aH"/><use transform="matrix(0.08086419753086417,0,0,0.08086419753086417,24.259259259259252,0)" xlink:href="#az"/><use transform="matrix(0.08086419753086417,0,0,0.08086419753086417,32.34567901234567,0)" xlink:href="#aA"/><use transform="matrix(0.08086419753086417,0,0,0.08086419753086417,48.518518518518505,0)" xlink:href="#aI"/><use transform="matrix(0.08086419753086417,0,0,0.08086419753086417,64.69135802469134,0)" xlink:href="#aA"/><use transform="matrix(0.08086419753086417,0,0,0.08086419753086417,80.86419753086417,0)" xlink:href="#aG"/></g><path d="M143 0L79-87 56-68V0H24v-261h32v163l83-92h37l-77 82L181 0h-38" id="bJ"/><g id="ai"><use transform="matrix(0.08086419753086417,0,0,0.08086419753086417,0,0)" xlink:href="#az"/><use transform="matrix(0.08086419753086417,0,0,0.08086419753086417,8.086419753086417,0)" xlink:href="#aG"/><use transform="matrix(0.08086419753086417,0,0,0.08086419753086417,17.709259259259255,0)" xlink:href="#aQ"/><use transform="matrix(0.08086419753086417,0,0,0.08086419753086417,33.88209876543209,0)" xlink:href="#aK"/><use transform="matrix(0.08086419753086417,0,0,0.08086419753086417,48.43765432098764,0)" xlink:href="#bJ"/><use transform="matrix(0.08086419753086417,0,0,0.08086419753086417,62.99320987654319,0)" xlink:href="#bf"/><use transform="matrix(0.08086419753086417,0,0,0.08086419753086417,72.61604938271603,0)" xlink:href="#bg"/></g><g id="aj"><use transform="matrix(0.08086419753086417,0,0,0.08086419753086417,0,0)" xlink:href="#aW"/><use transform="matrix(0.08086419753086417,0,0,0.08086419753086417,16.172839506172835,0)" xlink:href="#aL"/><use transform="matrix(0.08086419753086417,0,0,0.08086419753086417,32.34567901234567,0)" xlink:href="#aK"/><use transform="matrix(0.08086419753086417,0,0,0.08086419753086417,46.90123456790122,0)" xlink:href="#aQ"/><use transform="matrix(0.08086419753086417,0,0,0.08086419753086417,63.074074074074055,0)" xlink:href="#az"/><use transform="matrix(0.08086419753086417,0,0,0.08086419753086417,71.16049382716048,0)" xlink:href="#aC"/><use transform="matrix(0.08086419753086417,0,0,0.08086419753086417,77.54876543209875,0)" xlink:href="#aL"/><use transform="matrix(0.08086419753086417,0,0,0.08086419753086417,93.72160493827157,0)" xlink:href="#aH"/></g><path d="M182-130c37 4 62 22 62 59C244 23 116-4 24 0v-248c84 5 203-23 205 63 0 31-19 50-47 55zM76-148c40-3 101 13 101-30 0-44-60-28-101-31v61zm0 110c48-3 116 14 116-37 0-48-69-32-116-35v72" id="bK"/><path d="M25-224v-37h50v37H25zM25 0v-190h50V0H25" id="bL"/><path d="M147 0L96-86 75-71V0H25v-261h50v150l67-79h53l-66 74L201 0h-54" id="bM"/><g id="ak"><use transform="matrix(0.08086419753086417,0,0,0.08086419753086417,0,0)" xlink:href="#bK"/><use transform="matrix(0.08086419753086417,0,0,0.08086419753086417,20.94382716049382,0)" xlink:href="#bL"/><use transform="matrix(0.08086419753086417,0,0,0.08086419753086417,29.03024691358024,0)" xlink:href="#bM"/><use transform="matrix(0.08086419753086417,0,0,0.08086419753086417,45.20308641975308,0)" xlink:href="#bm"/></g><g id="al"><use transform="matrix(0.08086419753086417,0,0,0.08086419753086417,0,0)" xlink:href="#aK"/><use transform="matrix(0.08086419753086417,0,0,0.08086419753086417,14.55555555555555,0)" xlink:href="#aQ"/><use transform="matrix(0.08086419753086417,0,0,0.08086419753086417,30.728395061728385,0)" xlink:href="#aJ"/><use transform="matrix(0.08086419753086417,0,0,0.08086419753086417,46.90123456790122,0)" xlink:href="#aQ"/><use transform="matrix(0.08086419753086417,0,0,0.08086419753086417,63.074074074074055,0)" xlink:href="#aK"/><use transform="matrix(0.08086419753086417,0,0,0.08086419753086417,77.6296296296296,0)" xlink:href="#aC"/><use transform="matrix(0.08086419753086417,0,0,0.08086419753086417,84.01790123456787,0)" xlink:href="#az"/><use transform="matrix(0.08086419753086417,0,0,0.08086419753086417,92.10432098765429,0)" xlink:href="#aR"/></g><path d="M18-150v-26h174v26H18zm0 90v-26h174v26H18" id="bN"/><use transform="matrix(0.08086419753086417,0,0,0.08086419753086417,0,0)" xlink:href="#bN" id="am"/><path d="M101-251c68 0 85 55 85 127S166 4 100 4C33 4 14-52 14-124c0-73 17-127 87-127zm-1 229c47 0 54-49 54-102s-4-102-53-102c-51 0-55 48-55 102 0 53 5 102 54 102" id="bO"/><g id="an"><use transform="matrix(0.08086419753086417,0,0,0.08086419753086417,0,0)" xlink:href="#be"/><use transform="matrix(0.08086419753086417,0,0,0.08086419753086417,16.172839506172835,0)" xlink:href="#bO"/></g><path d="M136-208V0H84v-208H4v-40h212v40h-80" id="bP"/><path d="M190-63c-7 42-38 67-86 67-59 0-84-38-90-98-12-110 154-137 174-36l-49 2c-2-19-15-32-35-32-30 0-35 28-38 64-6 74 65 87 74 30" id="bQ"/><g id="ao"><use transform="matrix(0.08086419753086417,0,0,0.08086419753086417,0,0)" xlink:href="#bP"/><use transform="matrix(0.08086419753086417,0,0,0.08086419753086417,16.091975308641967,0)" xlink:href="#bs"/><use transform="matrix(0.08086419753086417,0,0,0.08086419753086417,27.41296296296295,0)" xlink:href="#bo"/><use transform="matrix(0.08086419753086417,0,0,0.08086419753086417,45.122222222222206,0)" xlink:href="#bQ"/><use transform="matrix(0.08086419753086417,0,0,0.08086419753086417,61.29506172839504,0)" xlink:href="#bM"/></g><g id="ap"><use transform="matrix(0.08086419753086417,0,0,0.08086419753086417,0,0)" xlink:href="#bj"/><use transform="matrix(0.08086419753086417,0,0,0.08086419753086417,16.172839506172835,0)" xlink:href="#bO"/></g><g id="aq"><use transform="matrix(0.08086419753086417,0,0,0.08086419753086417,0,0)" xlink:href="#aW"/><use transform="matrix(0.08086419753086417,0,0,0.08086419753086417,16.172839506172835,0)" xlink:href="#aL"/><use transform="matrix(0.08086419753086417,0,0,0.08086419753086417,32.34567901234567,0)" xlink:href="#aI"/><use transform="matrix(0.08086419753086417,0,0,0.08086419753086417,48.518518518518505,0)" xlink:href="#aC"/><use transform="matrix(0.08086419753086417,0,0,0.08086419753086417,54.90679012345677,0)" xlink:href="#aV"/><use transform="matrix(0.08086419753086417,0,0,0.08086419753086417,69.46234567901232,0)" xlink:href="#az"/><use transform="matrix(0.08086419753086417,0,0,0.08086419753086417,77.54876543209873,0)" xlink:href="#aC"/><use transform="matrix(0.08086419753086417,0,0,0.08086419753086417,83.93703703703702,0)" xlink:href="#aK"/><use transform="matrix(0.08086419753086417,0,0,0.08086419753086417,98.49259259259256,0)" xlink:href="#aF"/><use transform="matrix(0.08086419753086417,0,0,0.08086419753086417,117.89999999999996,0)" xlink:href="#aR"/><use transform="matrix(0.08086419753086417,0,0,0.08086419753086417,132.45555555555552,0)" xlink:href="#aV"/><use transform="matrix(0.08086419753086417,0,0,0.08086419753086417,147.01111111111106,0)" xlink:href="#az"/><use transform="matrix(0.08086419753086417,0,0,0.08086419753086417,155.0975308641975,0)" xlink:href="#aA"/><use transform="matrix(0.08086419753086417,0,0,0.08086419753086417,171.2703703703703,0)" xlink:href="#aB"/></g><g id="ar"><use transform="matrix(0.08086419753086417,0,0,0.08086419753086417,0,0)" xlink:href="#aL"/><use transform="matrix(0.08086419753086417,0,0,0.08086419753086417,16.172839506172835,0)" xlink:href="#aG"/><use transform="matrix(0.08086419753086417,0,0,0.08086419753086417,25.79567901234567,0)" xlink:href="#aD"/><use transform="matrix(0.08086419753086417,0,0,0.08086419753086417,41.96851851851851,0)" xlink:href="#aA"/><use transform="matrix(0.08086419753086417,0,0,0.08086419753086417,58.141358024691336,0)" xlink:href="#aG"/></g><g id="as"><use transform="matrix(0.08086419753086417,0,0,0.08086419753086417,0,0)" xlink:href="#aW"/><use transform="matrix(0.08086419753086417,0,0,0.08086419753086417,16.172839506172835,0)" xlink:href="#aC"/><use transform="matrix(0.08086419753086417,0,0,0.08086419753086417,22.561111111111103,0)" xlink:href="#aV"/><use transform="matrix(0.08086419753086417,0,0,0.08086419753086417,37.11666666666665,0)" xlink:href="#az"/><use transform="matrix(0.08086419753086417,0,0,0.08086419753086417,45.20308641975307,0)" xlink:href="#aX"/><use transform="matrix(0.08086419753086417,0,0,0.08086419753086417,62.184567901234544,0)" xlink:href="#aU"/><use transform="matrix(0.08086419753086417,0,0,0.08086419753086417,84.82654320987652,0)" xlink:href="#aG"/><use transform="matrix(0.08086419753086417,0,0,0.08086419753086417,94.44938271604936,0)" xlink:href="#aD"/><use transform="matrix(0.08086419753086417,0,0,0.08086419753086417,110.62222222222219,0)" xlink:href="#aA"/><use transform="matrix(0.08086419753086417,0,0,0.08086419753086417,126.79506172839503,0)" xlink:href="#aG"/><use transform="matrix(0.08086419753086417,0,0,0.08086419753086417,136.41790123456786,0)" xlink:href="#aY"/></g><g id="at"><use transform="matrix(0.08086419753086417,0,0,0.08086419753086417,0,0)" xlink:href="#bc"/><use transform="matrix(0.08086419753086417,0,0,0.08086419753086417,14.55555555555555,0)" xlink:href="#aA"/><use transform="matrix(0.08086419753086417,0,0,0.08086419753086417,30.728395061728385,0)" xlink:href="#bb"/><use transform="matrix(0.08086419753086417,0,0,0.08086419753086417,46.90123456790122,0)" xlink:href="#aC"/><use transform="matrix(0.08086419753086417,0,0,0.08086419753086417,53.28950617283949,0)" xlink:href="#aK"/><use transform="matrix(0.08086419753086417,0,0,0.08086419753086417,67.84506172839504,0)" xlink:href="#aO"/><use transform="matrix(0.08086419753086417,0,0,0.08086419753086417,74.2333333333333,0)" xlink:href="#aA"/><use transform="matrix(0.08086419753086417,0,0,0.08086419753086417,90.40617283950614,0)" xlink:href="#aV"/></g><g id="au"><use transform="matrix(0.08086419753086417,0,0,0.08086419753086417,0,0)" xlink:href="#aW"/><use transform="matrix(0.08086419753086417,0,0,0.08086419753086417,16.172839506172835,0)" xlink:href="#aC"/><use transform="matrix(0.08086419753086417,0,0,0.08086419753086417,22.561111111111103,0)" xlink:href="#aV"/><use transform="matrix(0.08086419753086417,0,0,0.08086419753086417,37.11666666666665,0)" xlink:href="#az"/><use transform="matrix(0.08086419753086417,0,0,0.08086419753086417,45.20308641975307,0)" xlink:href="#aX"/><use transform="matrix(0.08086419753086417,0,0,0.08086419753086417,62.184567901234544,0)" xlink:href="#ba"/><use transform="matrix(0.08086419753086417,0,0,0.08086419753086417,79.97469135802466,0)" xlink:href="#aA"/><use transform="matrix(0.08086419753086417,0,0,0.08086419753086417,96.1475308641975,0)" xlink:href="#bb"/><use transform="matrix(0.08086419753086417,0,0,0.08086419753086417,112.32037037037033,0)" xlink:href="#aC"/><use transform="matrix(0.08086419753086417,0,0,0.08086419753086417,118.70864197530861,0)" xlink:href="#aK"/><use transform="matrix(0.08086419753086417,0,0,0.08086419753086417,133.26419753086415,0)" xlink:href="#aO"/><use transform="matrix(0.08086419753086417,0,0,0.08086419753086417,139.65246913580242,0)" xlink:href="#aA"/><use transform="matrix(0.08086419753086417,0,0,0.08086419753086417,155.82530864197525,0)" xlink:href="#aY"/></g><g id="av"><use transform="matrix(0.08086419753086417,0,0,0.08086419753086417,0,0)" xlink:href="#aM"/><use transform="matrix(0.08086419753086417,0,0,0.08086419753086417,16.172839506172835,0)" xlink:href="#aV"/><use transform="matrix(0.08086419753086417,0,0,0.08086419753086417,30.728395061728385,0)" xlink:href="#aA"/><use transform="matrix(0.08086419753086417,0,0,0.08086419753086417,46.90123456790122,0)" xlink:href="#aG"/></g><g id="aw"><use transform="matrix(0.08086419753086417,0,0,0.08086419753086417,0,0)" xlink:href="#aW"/><use transform="matrix(0.08086419753086417,0,0,0.08086419753086417,16.172839506172835,0)" xlink:href="#aC"/><use transform="matrix(0.08086419753086417,0,0,0.08086419753086417,22.561111111111103,0)" xlink:href="#aV"/><use transform="matrix(0.08086419753086417,0,0,0.08086419753086417,37.11666666666665,0)" xlink:href="#az"/><use transform="matrix(0.08086419753086417,0,0,0.08086419753086417,45.20308641975307,0)" xlink:href="#aX"/><use transform="matrix(0.08086419753086417,0,0,0.08086419753086417,62.184567901234544,0)" xlink:href="#bG"/><use transform="matrix(0.08086419753086417,0,0,0.08086419753086417,83.12839506172837,0)" xlink:href="#aV"/><use transform="matrix(0.08086419753086417,0,0,0.08086419753086417,97.68395061728391,0)" xlink:href="#aA"/><use transform="matrix(0.08086419753086417,0,0,0.08086419753086417,113.85679012345675,0)" xlink:href="#aG"/><use transform="matrix(0.08086419753086417,0,0,0.08086419753086417,123.47962962962961,0)" xlink:href="#aY"/></g><g id="ax"><use transform="matrix(0.08086419753086417,0,0,0.08086419753086417,0,0)" xlink:href="#bG"/><use transform="matrix(0.08086419753086417,0,0,0.08086419753086417,20.94382716049382,0)" xlink:href="#aV"/><use transform="matrix(0.08086419753086417,0,0,0.08086419753086417,35.49938271604937,0)" xlink:href="#aA"/><use transform="matrix(0.08086419753086417,0,0,0.08086419753086417,51.6722222222222,0)" xlink:href="#aG"/></g></defs></g></svg>